<?xml version="1.0" encoding="UTF-8" standalone="no"?>
<!-- Uploaded to: SVG Repo, www.svgrepo.com, Transformed by: SVG Repo Mixer Tools -->

<svg
   fill="#3e4095"
   version="1.1"
   id="Capa_1"
   width="799.99994"
   height="799.99994"
   viewBox="0 0 256.60998 256.60998"
   xml:space="preserve"
   xmlns="http://www.w3.org/2000/svg"
   xmlns:svg="http://www.w3.org/2000/svg"><defs
   id="defs8" />





<g
   id="g8"
   style="stroke-width:3.20762;stroke-dasharray:none"> <g
   id="_x38_7_36_"
   style="stroke-width:3.20762;stroke-dasharray:none"> <g
   id="g7"
   style="stroke-width:3.20762;stroke-dasharray:none"> <path
   d="m 60.859,112.533 c -6.853,0 -6.853,10.646 0,10.646 27.294,0 54.583,0 81.875,0 6.865,0 6.865,-10.646 0,-10.646 -27.292,0 -54.581,0 -81.875,0 z"
   id="path1"
   style="stroke-width:3.20762;stroke-dasharray:none" /> <path
   d="m 142.734,137.704 c -27.292,0 -54.581,0 -81.875,0 -6.853,0 -6.853,10.634 0,10.634 27.294,0 54.583,0 81.875,0 6.866,0 6.866,-10.634 0,-10.634 z"
   id="path2"
   style="stroke-width:3.20762;stroke-dasharray:none" /> <path
   d="m 142.734,161.018 c -27.292,0 -54.581,0 -81.875,0 -6.853,0 -6.853,10.633 0,10.633 27.294,0 54.583,0 81.875,0 6.866,-0.001 6.866,-10.633 0,-10.633 z"
   id="path3"
   style="stroke-width:3.20762;stroke-dasharray:none" /> <path
   d="m 142.734,186.184 c -27.292,0 -54.581,0 -81.875,0 -6.853,0 -6.853,10.629 0,10.629 27.294,0 54.583,0 81.875,0 6.866,-10e-4 6.866,-10.629 0,-10.629 z"
   id="path4"
   style="stroke-width:3.20762;stroke-dasharray:none" /> <path
   d="m 141.17,209.934 c -27.302,0 -54.601,0 -81.89,0 -6.848,0 -6.848,10.633 0,10.633 27.289,0 54.588,0 81.89,0 6.845,-0.001 6.845,-10.633 0,-10.633 z"
   id="path5"
   style="stroke-width:3.20762;stroke-dasharray:none" /> <path
   d="M 25.362,58.087 V 256.61 H 178.239 V 85.63 L 149.833,58.087 Z M 165.026,243.393 H 38.585 V 71.305 h 104.443 v 20.97 h 21.988 v 151.118 z"
   id="path6"
   style="stroke-width:3.20762;stroke-dasharray:none" /> <polygon
   points="168.875,40.88 168.875,61.85 190.868,61.85 190.868,212.971 185.059,212.971 185.059,226.188 204.086,226.188 204.086,55.205 175.68,27.667 51.204,27.667 51.204,50.645 64.427,50.645 64.427,40.88 "
   id="polygon6"
   style="stroke-width:3.20762;stroke-dasharray:none" /> <polygon
   points="91.581,13.218 196.032,13.218 196.032,34.188 218.025,34.188 218.025,185.306 212.221,185.306 212.221,198.523 231.248,198.523 231.248,27.543 202.837,0 78.363,0 78.363,22.983 91.581,22.983 "
   id="polygon7"
   style="stroke-width:3.20762;stroke-dasharray:none" /> </g> </g> </g>

</svg>
