<svg width="1145" height="1005" viewBox="0 0 1145 1005" fill="none" xmlns="http://www.w3.org/2000/svg">
<g clip-path="url(#clip0_342_3337)">
<path d="M572.892 510.05C567.958 510.05 563.862 506.542 563.862 502.205C563.862 497.867 567.774 494.358 572.718 494.358H572.892C577.835 494.358 581.833 497.867 581.833 502.205C581.833 506.542 577.835 510.05 572.892 510.05Z" fill="white"/>
<path d="M572.36 533.589C552.634 533.589 536.592 519.504 536.592 502.205C536.592 484.897 552.634 470.821 572.36 470.821C592.093 470.821 608.128 484.897 608.128 502.205C608.128 519.504 592.093 533.589 572.36 533.589ZM572.36 486.513C562.5 486.513 554.476 493.554 554.476 502.205C554.476 510.854 562.5 517.897 572.36 517.897C582.218 517.897 590.244 510.854 590.244 502.205C590.244 493.554 582.218 486.513 572.36 486.513Z" fill="white"/>
<path d="M885.327 1004.35H259.391C224.879 1004.35 196.798 979.704 196.798 949.424V384.516C196.798 380.179 200.798 376.669 205.739 376.669H938.981C943.925 376.669 947.924 380.179 947.924 384.516V949.424C947.924 979.704 919.838 1004.35 885.327 1004.35ZM214.682 392.361V949.424C214.682 971.06 234.741 988.653 259.391 988.653H885.329C909.99 988.653 930.038 971.06 930.038 949.424V392.361H214.682Z" fill="white"/>
<path d="M867.443 376.67C866.269 376.67 865.106 376.468 864.021 376.074C862.936 375.679 861.95 375.102 861.119 374.373C860.289 373.644 859.63 372.779 859.181 371.827C858.732 370.875 858.501 369.855 858.502 368.825V86.3697C858.502 82.0323 862.5 78.5227 867.443 78.5227C872.386 78.5227 876.386 82.0323 876.386 86.3697V368.823C876.386 373.16 872.386 376.67 867.443 376.67ZM313.043 360.978C311.869 360.978 310.706 360.776 309.621 360.382C308.536 359.988 307.55 359.41 306.719 358.681C305.889 357.953 305.231 357.088 304.781 356.135C304.332 355.183 304.101 354.163 304.102 353.133V7.90993C304.102 3.57449 308.1 0.0649414 313.043 0.0649414C317.986 0.0649414 321.986 3.57449 321.986 7.90993V353.133C321.987 354.163 321.756 355.184 321.306 356.136C320.857 357.088 320.198 357.953 319.368 358.682C318.537 359.41 317.551 359.988 316.466 360.382C315.381 360.776 314.217 360.978 313.043 360.978Z" fill="white"/>
<path d="M778.025 15.7569H313.043C311.868 15.7574 310.705 15.5548 309.62 15.1606C308.535 14.7664 307.549 14.1884 306.719 13.4596C305.888 12.7308 305.23 11.8656 304.781 10.9133C304.332 9.96104 304.101 8.94046 304.102 7.90993C304.101 6.87957 304.332 5.85921 304.781 4.90718C305.231 3.95514 305.889 3.09011 306.719 2.36154C307.55 1.63296 308.536 1.05512 309.621 0.661056C310.706 0.266991 311.869 0.0644267 313.043 0.0649424H778.027C779.202 0.0644267 780.364 0.266991 781.449 0.661056C782.535 1.05512 783.52 1.63296 784.351 2.36154C785.181 3.09011 785.84 3.95514 786.289 4.90718C786.738 5.85921 786.969 6.87957 786.968 7.90993C786.968 8.94048 786.737 9.96098 786.288 10.9131C785.839 11.8653 785.18 12.7304 784.349 13.4591C783.519 14.1878 782.533 14.7658 781.448 15.1601C780.363 15.5544 779.2 15.7571 778.025 15.7569Z" fill="white"/>
<path d="M867.443 94.2144C866.268 94.2158 865.105 94.0136 864.02 93.6193C862.935 93.2251 861.95 92.6466 861.12 91.9172L771.702 13.4574C770.085 11.9756 769.194 9.99717 769.22 7.94588C769.245 5.89459 770.185 3.93359 771.838 2.48289C773.491 1.0322 775.726 0.207185 778.064 0.18456C780.402 0.161935 782.656 0.943499 784.346 2.36185L873.766 80.8216C875.015 81.9191 875.866 83.317 876.211 84.8386C876.555 86.3602 876.378 87.9372 875.701 89.3704C875.024 90.8037 873.879 92.0288 872.409 92.8909C870.939 93.7531 869.211 94.2136 867.443 94.2144ZM760.139 109.906C758.965 109.907 757.802 109.704 756.717 109.31C755.632 108.916 754.646 108.338 753.815 107.61C752.985 106.881 752.326 106.016 751.877 105.064C751.428 104.112 751.197 103.092 751.198 102.061V39.2935C751.197 38.2632 751.428 37.2428 751.877 36.2908C752.326 35.3387 752.985 34.4737 753.815 33.7451C754.646 33.0166 755.632 32.4387 756.717 32.0447C757.802 31.6506 758.965 31.448 760.139 31.4485C765.082 31.4485 769.082 34.9581 769.082 39.2935V102.061C769.083 103.092 768.852 104.112 768.402 105.065C767.953 106.017 767.294 106.882 766.464 107.61C765.633 108.339 764.647 108.917 763.562 109.311C762.476 109.705 761.313 109.907 760.139 109.906Z" fill="white"/>
<path d="M831.675 109.906H760.139C758.965 109.907 757.802 109.704 756.717 109.31C755.632 108.916 754.646 108.338 753.815 107.61C752.985 106.881 752.326 106.016 751.877 105.064C751.428 104.112 751.197 103.092 751.198 102.061C751.198 97.7239 755.198 94.2143 760.139 94.2143H831.675C836.618 94.2143 840.618 97.7239 840.618 102.061C840.619 103.092 840.388 104.112 839.938 105.064C839.489 106.017 838.83 106.882 838 107.61C837.169 108.339 836.183 108.917 835.098 109.311C834.012 109.705 832.849 109.907 831.675 109.906ZM769.082 243.289H411.404C410.23 243.289 409.067 243.087 407.982 242.693C406.897 242.299 405.911 241.721 405.08 240.992C404.25 240.264 403.591 239.399 403.142 238.447C402.693 237.495 402.462 236.474 402.463 235.444C402.463 231.106 406.461 227.597 411.404 227.597H769.082C774.025 227.597 778.025 231.106 778.025 235.444C778.026 236.474 777.795 237.495 777.345 238.447C776.896 239.399 776.237 240.264 775.407 240.993C774.576 241.721 773.59 242.299 772.505 242.693C771.42 243.087 770.256 243.29 769.082 243.289ZM769.082 306.057H411.404C406.461 306.057 402.463 302.547 402.463 298.21C402.463 293.872 406.461 290.363 411.404 290.363H769.082C774.025 290.363 778.025 293.872 778.025 298.21C778.025 302.547 774.025 306.057 769.082 306.057ZM277.275 360.977C276.101 360.978 274.938 360.775 273.853 360.381C272.768 359.987 271.782 359.409 270.951 358.681C270.121 357.952 269.462 357.087 269.013 356.135C268.564 355.183 268.333 354.163 268.334 353.132V31.4485C268.334 27.1111 272.332 23.6016 277.275 23.6016C282.218 23.6016 286.218 27.1111 286.218 31.4485V353.132C286.219 354.163 285.988 355.183 285.538 356.136C285.089 357.088 284.43 357.953 283.6 358.681C282.769 359.41 281.783 359.988 280.698 360.382C279.613 360.776 278.449 360.978 277.275 360.977Z" fill="white"/>
<path d="M938.981 360.978C937.509 360.98 936.058 360.662 934.76 360.052C933.462 359.442 932.355 358.56 931.54 357.484L895.772 310.408C895.12 309.551 894.666 308.59 894.438 307.579C894.209 306.568 894.21 305.527 894.44 304.517C894.671 303.506 895.126 302.545 895.78 301.689C896.434 300.833 897.274 300.099 898.252 299.528C899.228 298.955 900.324 298.556 901.477 298.355C902.629 298.154 903.815 298.154 904.968 298.357C906.12 298.559 907.215 298.958 908.191 299.533C909.167 300.107 910.004 300.845 910.654 301.704L946.422 348.779C947.075 349.636 947.529 350.598 947.757 351.609C947.986 352.62 947.985 353.66 947.755 354.671C947.525 355.681 947.069 356.642 946.415 357.498C945.761 358.354 944.921 359.089 943.942 359.659C942.472 360.517 940.747 360.976 938.981 360.978Z" fill="white"/>
<path d="M205.73 360.978C204.112 360.978 202.524 360.593 201.135 359.863C199.747 359.133 198.611 358.086 197.848 356.834C197.085 355.582 196.725 354.171 196.804 352.753C196.884 351.335 197.401 349.962 198.3 348.782L234.068 301.706C234.718 300.847 235.555 300.109 236.53 299.534C237.506 298.96 238.601 298.56 239.753 298.358C240.905 298.156 242.092 298.155 243.244 298.357C244.396 298.558 245.492 298.957 246.468 299.53C247.446 300.101 248.286 300.836 248.94 301.692C249.593 302.548 250.049 303.508 250.279 304.519C250.509 305.529 250.51 306.57 250.282 307.581C250.053 308.592 249.6 309.553 248.948 310.41L213.18 357.486C212.362 358.562 211.254 359.444 209.955 360.053C208.655 360.662 207.204 360.98 205.73 360.978Z" fill="white"/>
<path d="M831.675 910.194H313.041C311.866 910.194 310.703 909.992 309.618 909.598C308.533 909.204 307.548 908.626 306.717 907.897C305.887 907.169 305.228 906.304 304.779 905.351C304.33 904.399 304.099 903.379 304.1 902.349V808.197C304.099 807.167 304.33 806.146 304.779 805.194C305.228 804.242 305.886 803.377 306.717 802.648C307.547 801.919 308.533 801.342 309.618 800.948C310.703 800.554 311.866 800.351 313.041 800.352H831.675C836.618 800.352 840.618 803.86 840.618 808.197V902.349C840.619 903.379 840.388 904.4 839.938 905.352C839.489 906.304 838.83 907.169 838 907.898C837.169 908.626 836.183 909.204 835.098 909.598C834.013 909.992 832.849 910.194 831.675 910.194ZM321.986 894.502H822.736V816.042H321.986V894.502Z" fill="white"/>
<path d="M778.025 863.118H366.695C361.752 863.118 357.752 859.61 357.752 855.273C357.752 850.935 361.752 847.426 366.695 847.426H778.027C782.968 847.426 786.968 850.935 786.968 855.273C786.968 859.61 782.966 863.118 778.025 863.118Z" fill="white"/>
<path d="M581.31 706.198C579.648 706.198 578.019 705.792 576.605 705.026C575.191 704.26 574.048 703.164 573.303 701.861C572.456 700.374 552.79 665.192 574.98 645.73C579.66 641.622 577.165 633.808 572.823 622.377C568.054 609.84 562.125 594.242 574.98 582.962C587.729 571.776 573.547 547.319 573.4 547.074C572.296 545.234 572.068 543.085 572.765 541.098C573.462 539.111 575.028 537.447 577.12 536.471C581.475 534.477 586.863 535.888 589.195 539.702C590.052 541.112 609.943 574.473 587.624 594.057C582.942 598.163 585.439 605.979 589.781 617.41C594.539 629.945 600.477 645.545 587.624 656.823C576.744 666.371 585.406 688.007 589.3 694.844C589.979 696.04 590.298 697.368 590.229 698.702C590.159 700.037 589.703 701.334 588.903 702.47C588.103 703.607 586.986 704.546 585.657 705.198C584.329 705.851 582.832 706.195 581.31 706.198Z" fill="white"/>
</g>
<defs>
<clipPath id="clip0_342_3337">
<rect width="1144.72" height="1004.41" fill="white"/>
</clipPath>
</defs>
</svg>
