<?xml version="1.0" encoding="UTF-8" standalone="no"?>
<!-- Uploaded to: SVG Repo, www.svgrepo.com, Transformed by: SVG Repo Mixer Tools -->

<svg
   fill="#3e4095"
   width="800px"
   height="800px"
   viewBox="0 0 32 32"
   id="icon"
   version="1.1"
   sodipodi:docname="document-export-svgrepo-com.svg"
   inkscape:export-filename="document-export-svgrepo-com.svg"
   inkscape:export-xdpi="24"
   inkscape:export-ydpi="24"
   inkscape:version="1.3.2 (091e20e, 2023-11-25)"
   xmlns:inkscape="http://www.inkscape.org/namespaces/inkscape"
   xmlns:sodipodi="http://sodipodi.sourceforge.net/DTD/sodipodi-0.dtd"
   xmlns="http://www.w3.org/2000/svg"
   xmlns:svg="http://www.w3.org/2000/svg">
  <defs
     id="defs2">
    <defs
       id="defs1">
      <style
         id="style1">.cls-1{fill:none;}</style>
    </defs>
  </defs>
  <sodipodi:namedview
     id="namedview1"
     pagecolor="#ffffff"
     bordercolor="#000000"
     borderopacity="0.25"
     inkscape:showpageshadow="2"
     inkscape:pageopacity="0.0"
     inkscape:pagecheckerboard="0"
     inkscape:deskcolor="#d1d1d1"
     inkscape:zoom="1.03125"
     inkscape:cx="400"
     inkscape:cy="555.15152"
     inkscape:window-width="1392"
     inkscape:window-height="968"
     inkscape:window-x="1857"
     inkscape:window-y="25"
     inkscape:window-maximized="0"
     inkscape:current-layer="icon" />
  <polygon
     points="30,20 25,15 23.59,16.41 26.17,19 13,19 13,21 26.17,21 23.59,23.59 25,25 "
     id="polygon1"
     style="display:inline;stroke-width:1.028;stroke-dasharray:none;opacity:1" />
  <path
     d="M 22,14 V 10 A 1,1 0 0 0 21.71,9.29 l -7,-7 A 1,1 0 0 0 14,2 H 4 A 2,2 0 0 0 2,4 v 24 a 2,2 0 0 0 2,2 h 16 a 2,2 0 0 0 2,-2 v -2 h -2 v 2 H 4 V 4 h 8 v 6 a 2,2 0 0 0 2,2 h 6 v 2 z M 14,10 V 4.41 L 19.59,10 Z"
     id="path1"
     style="display:inline;stroke-width:2;stroke-dasharray:none;stroke:none;stroke-opacity:1;paint-order:normal" />
</svg>
