<svg width="851" height="851" viewBox="0 0 851 851" fill="none" xmlns="http://www.w3.org/2000/svg">
<g clip-path="url(#clip0_343_3451)">
<path d="M53.58 712.57H686.31V335.73H53.58V712.57ZM62.06 704.09V399.87H677.83V704.12L62.06 704.09ZM677.83 344.21V391.39H62.06V344.21H677.83Z" fill="black"/>
<path d="M90.6799 381.9C93.7436 381.9 96.7384 380.991 99.2857 379.289C101.833 377.587 103.818 375.168 104.991 372.338C106.163 369.507 106.47 366.393 105.872 363.388C105.275 360.383 103.799 357.623 101.633 355.457C99.4667 353.291 96.7067 351.815 93.7019 351.218C90.6971 350.62 87.5826 350.927 84.7522 352.099C81.9217 353.271 79.5025 355.257 77.8005 357.804C76.0984 360.351 75.1899 363.346 75.1899 366.41C75.1952 370.516 76.8289 374.453 79.7327 377.357C82.6365 380.261 86.5734 381.895 90.6799 381.9ZM90.6799 359.4C92.0644 359.4 93.4178 359.81 94.5689 360.58C95.7201 361.349 96.6173 362.442 97.1471 363.721C97.6769 365 97.8155 366.408 97.5454 367.766C97.2753 369.123 96.6087 370.371 95.6297 371.35C94.6507 372.329 93.4034 372.995 92.0456 373.265C90.6877 373.536 89.2802 373.397 88.0012 372.867C86.7221 372.337 85.6288 371.44 84.8596 370.289C84.0905 369.138 83.6799 367.784 83.6799 366.4C83.6799 364.543 84.4174 362.763 85.7302 361.45C87.0429 360.137 88.8234 359.4 90.6799 359.4Z" fill="black"/>
<path d="M127 381.9C130.064 381.9 133.058 380.991 135.606 379.289C138.153 377.587 140.139 375.168 141.311 372.338C142.483 369.507 142.79 366.393 142.192 363.388C141.595 360.383 140.119 357.623 137.953 355.457C135.787 353.291 133.027 351.815 130.022 351.218C127.017 350.62 123.903 350.927 121.072 352.099C118.242 353.271 115.823 355.257 114.121 357.804C112.418 360.351 111.51 363.346 111.51 366.41C111.513 370.517 113.145 374.456 116.05 377.36C118.954 380.264 122.893 381.897 127 381.9ZM127 359.4C128.384 359.4 129.738 359.81 130.889 360.58C132.04 361.349 132.937 362.442 133.467 363.721C133.997 365 134.136 366.408 133.866 367.766C133.595 369.123 132.929 370.371 131.95 371.35C130.971 372.329 129.724 372.995 128.366 373.265C127.008 373.536 125.6 373.397 124.321 372.867C123.042 372.337 121.949 371.44 121.18 370.289C120.411 369.138 120 367.784 120 366.4C120 364.543 120.738 362.763 122.05 361.45C123.363 360.137 125.143 359.4 127 359.4Z" fill="black"/>
<path d="M824.67 324.57L850.39 314.15L850.19 311.09C849.564 301.881 848.345 292.722 846.54 283.67L845.94 280.67L818.5 277.01L809 253.48L826 231.57L824.46 229.07C819.622 221.194 814.062 213.785 807.85 206.94L805.85 204.75L780.28 215.09L760.28 199.57L763.9 172.48L759.9 169.82L759.33 169.51C751.59 165.93 743.59 162.24 735.51 159.75L732.71 158.89L715.71 180.76L690.71 177.26L680.33 151L677.25 151.21C668.25 151.8 659.05 152.42 649.82 154.21L646.82 154.8L643.17 182.27L619 192.39L597.13 175.39L594.63 176.94C586.768 181.788 579.373 187.355 572.54 193.57L570.35 195.57L578.15 214.84H577.59V224.53H578.07L565.17 241.17L537.81 237.52L536.42 240.1C532.021 248.355 528.341 256.974 525.42 265.86L524.42 268.7L546.36 285.76L545.23 293.81H298.23V290.99H288.54V293.81H69.92C58.7804 293.836 48.1053 298.277 40.2331 306.158C32.3608 314.04 27.9332 324.72 27.92 335.86V731.02H0V760.65C0 772.77 18.08 781.9 42.05 781.9H701.42C725.42 781.9 743.47 772.77 743.47 760.65V731.02H715.58V646.02H718.4V636.33H715.58V480.33C716.4 480.14 717.22 479.95 718.04 479.73L720.77 479L724.41 451.77L747.93 442.26L769.82 459.26L772.32 457.72C780.2 452.883 787.612 447.323 794.46 441.11L796.64 439.11L786.3 413.57L801.82 393.57L829.18 397.21L830.57 394.64C834.969 386.385 838.649 377.766 841.57 368.88L842.57 366.04L820.68 349.04L824.67 324.57ZM735 760.65C735 765.98 722.23 773.42 701.43 773.42H42.05C21.25 773.42 8.48 765.98 8.48 760.65V739.5H735V760.65ZM36.35 731.02V335.8C36.3606 326.9 39.9008 318.367 46.1941 312.074C52.4874 305.781 61.0199 302.241 69.92 302.23H673.53C682.434 302.23 690.974 305.767 697.271 312.062C703.568 318.357 707.107 326.896 707.11 335.8V731.02H36.35ZM703.27 306.02C699.373 302.103 694.738 298.998 689.633 296.885C684.528 294.772 679.055 293.693 673.53 293.71H598.93C602.968 279.169 610.662 265.904 621.281 255.18C631.899 244.456 645.087 236.63 659.588 232.449C674.089 228.268 689.419 227.87 704.117 231.294C718.815 234.718 732.391 241.85 743.551 252.009C754.711 262.168 763.083 275.016 767.868 289.329C772.654 303.642 773.694 318.942 770.89 333.77C768.085 348.599 761.529 362.462 751.847 374.038C742.165 385.615 729.679 394.518 715.58 399.9V335.8C715.595 330.275 714.514 324.803 712.402 319.698C710.289 314.593 707.185 309.958 703.27 306.06V306.02ZM832.6 368.97C830.316 375.477 827.6 381.825 824.47 387.97L798.11 384.46L776.61 412.21L786.55 436.78C781.451 441.209 776.041 445.267 770.36 448.92L749.28 432.51L716.65 445.71L715.58 453.71V408.91C731.448 403.455 745.626 393.97 756.724 381.386C767.823 368.801 775.461 353.549 778.891 337.124C782.32 320.699 781.423 303.665 776.287 287.691C771.152 271.717 761.953 257.351 749.594 246.002C737.235 234.653 722.139 226.71 705.786 222.952C689.433 219.193 672.385 219.748 656.311 224.563C640.237 229.377 625.69 238.285 614.095 250.414C602.5 262.542 594.256 277.476 590.17 293.75H553.8L555.44 282.02L534.44 265.65C536.721 259.141 539.437 252.794 542.57 246.65L568.92 250.17L590.43 222.42L580.48 197.85C585.578 193.42 590.989 189.363 596.67 185.71L617.78 202.13L651 188.29L654.49 162.04C661.209 160.98 667.978 160.259 674.77 159.88L684.69 184.98L719.43 189.85L735.84 168.76C742.16 170.94 748.58 173.86 754.84 176.76L751.3 203.3L779 224.79L803.58 214.85C808.004 219.953 812.061 225.363 815.72 231.04L799.32 252.13L812.5 284.75L838.8 288.26C840.038 294.981 840.94 301.759 841.5 308.57L817.07 318.46L811.51 352.57L832.6 368.97Z" fill="black"/>
<path d="M298.25 265.23H288.56V278.08H298.25V265.23Z" fill="black"/>
<path d="M298.25 239.53H288.56V252.38H298.25V239.53Z" fill="black"/>
<path d="M298.25 224.47H300.46V214.78H288.56V226.68H298.25V224.47Z" fill="black"/>
<path d="M387.98 214.78H373.39V224.47H387.98V214.78Z" fill="black"/>
<path d="M329.63 214.78H315.04V224.47H329.63V214.78Z" fill="black"/>
<path d="M504.67 214.78H490.08V224.47H504.67V214.78Z" fill="black"/>
<path d="M563.01 214.78H548.42V224.47H563.01V214.78Z" fill="black"/>
<path d="M533.84 214.78H519.25V224.47H533.84V214.78Z" fill="black"/>
<path d="M417.15 214.78H402.56V224.47H417.15V214.78Z" fill="black"/>
<path d="M446.32 214.78H431.73V224.47H446.32V214.78Z" fill="black"/>
<path d="M475.49 214.78H460.9V224.47H475.49V214.78Z" fill="black"/>
<path d="M358.81 214.78H344.22V224.47H358.81V214.78Z" fill="black"/>
<path d="M812.8 492.64H803.11V506.79H812.8V492.64Z" fill="black"/>
<path d="M812.8 549.22H803.11V563.37H812.8V549.22Z" fill="black"/>
<path d="M812.8 520.93H803.11V535.08H812.8V520.93Z" fill="black"/>
<path d="M812.8 464.34H803.11V478.49H812.8V464.34Z" fill="black"/>
<path d="M812.8 605.8H803.11V619.95H812.8V605.8Z" fill="black"/>
<path d="M812.8 407.76H803.11V421.91H812.8V407.76Z" fill="black"/>
<path d="M812.8 577.51H803.11V591.66H812.8V577.51Z" fill="black"/>
<path d="M812.8 436.05H803.11V450.2H812.8V436.05Z" fill="black"/>
<path d="M803.11 636.3H800.89V645.99H812.8V634.09H803.11V636.3Z" fill="black"/>
<path d="M751.4 636.3H734.9V645.99H751.4V636.3Z" fill="black"/>
<path d="M784.4 636.3H767.9V645.99H784.4V636.3Z" fill="black"/>
<g clip-path="url(#clip1_343_3451)">
<path fill-rule="evenodd" clip-rule="evenodd" d="M448.729 535.721L347.036 636.286C330.186 652.95 302.864 652.95 286.014 636.286C269.164 619.629 269.164 592.614 286.014 575.95L377.543 485.436C388.771 474.329 406.986 474.329 418.221 485.436C429.45 496.543 429.45 514.557 418.221 525.657L326.693 616.171C321.078 621.729 311.971 621.729 306.35 616.171C300.736 610.621 300.736 601.614 306.35 596.057L387.714 515.607L377.543 505.55L296.186 586.007C284.95 597.107 284.95 615.121 296.186 626.236C307.414 637.336 325.628 637.336 336.864 626.229L428.386 535.721C445.236 519.064 445.243 492.036 428.393 475.379C411.536 458.714 384.221 458.714 367.371 475.379L270.757 570.914L271.114 571.264C253.557 593.579 255.107 625.836 275.843 646.343C296.586 666.85 329.2 668.386 351.764 651.021L352.114 651.371L458.9 545.779L448.729 535.721Z" fill="#504696"/>
</g>
</g>
<defs>
<clipPath id="clip0_343_3451">
<rect width="850.39" height="850.39" fill="white"/>
</clipPath>
<clipPath id="clip1_343_3451">
<rect width="200" height="200" fill="white" transform="translate(259 463)"/>
</clipPath>
</defs>
</svg>
