<?xml version="1.0" encoding="utf-8"?><!-- Uploaded to: SVG Repo, www.svgrepo.com, Generator: SVG Repo Mixer Tools -->
<svg fill="#000000" width="800px" height="800px" viewBox="0 0 24 24" id="inbox-in" data-name="Flat Line" xmlns="http://www.w3.org/2000/svg" class="icon flat-line"><path id="secondary" d="M8.28,15.55l.44.9a1,1,0,0,0,.9.55h4.76a1,1,0,0,0,.9-.55l.44-.9a1,1,0,0,1,.9-.55H20v5a1,1,0,0,1-1,1H5a1,1,0,0,1-1-1V15H7.38A1,1,0,0,1,8.28,15.55Z" style="fill: rgb(44, 169, 188); stroke-width: 2;"></path><polyline id="primary" points="9 9 12 12 15 9" style="fill: none; stroke: rgb(0, 0, 0); stroke-linecap: round; stroke-linejoin: round; stroke-width: 2;"></polyline><path id="primary-2" data-name="primary" d="M8,5H6L4,15H7.38a1,1,0,0,1,.9.55l.44.9a1,1,0,0,0,.9.55h4.76a1,1,0,0,0,.9-.55l.44-.9a1,1,0,0,1,.9-.55H20L18,5H16" style="fill: none; stroke: rgb(0, 0, 0); stroke-linecap: round; stroke-linejoin: round; stroke-width: 2;"></path><path id="primary-3" data-name="primary" d="M12,3v9M7.38,15H4v5a1,1,0,0,0,1,1H19a1,1,0,0,0,1-1V15H16.62a1,1,0,0,0-.9.55l-.44.9a1,1,0,0,1-.9.55H9.62a1,1,0,0,1-.9-.55l-.44-.9A1,1,0,0,0,7.38,15Z" style="fill: none; stroke: rgb(0, 0, 0); stroke-linecap: round; stroke-linejoin: round; stroke-width: 2;"></path></svg>