<svg width="800" height="800" viewBox="0 0 800 800" fill="none" xmlns="http://www.w3.org/2000/svg">
<g clip-path="url(#clip0_350_660)">
<path d="M613.409 561.933C723.88 451.463 723.88 272.355 613.409 161.884C502.939 51.4138 323.831 51.4138 213.36 161.884C102.89 272.355 102.89 451.463 213.36 561.933C323.831 672.404 502.939 672.404 613.409 561.933Z" fill="#BFCCDB"/>
<path d="M246.08 459.774L209.12 479.206C199.44 484.3 192.496 493.354 190.112 504.004L172 584.833C170.672 590.773 185.92 608.944 192.032 608.944H403.984L366.48 496.26C362.944 486.168 355.216 478.089 345.296 474.065L309.92 459.758L283.488 463.015L246.08 459.774Z" fill="#3E4095"/>
<path d="M431.584 508.827H473.552L440.832 589.08C436.368 600.018 425.728 607.172 413.888 607.172H363.2L431.584 508.827Z" fill="#3E4095"/>
<path d="M431.584 508.827H473.552L467.92 522.639H421.968L431.584 508.827Z" fill="#FFE9D9"/>
<path d="M434.24 508.827L444.56 487.334H484.672L492.016 470.951C492.896 469.019 494.832 467.79 496.96 467.79H501.12L493.52 495.813L469.616 500.923L468.688 508.827H434.24Z" fill="url(#paint0_linear_350_660)"/>
<path d="M473.968 487.35L486.432 466.113C487.456 464.372 489.328 463.302 491.36 463.302H495.536L484.672 487.35H473.968Z" fill="#DA8676"/>
<path d="M485.408 467.79H480.944C478.544 467.79 476.304 469.035 475.056 471.095L465.12 487.35H473.968L485.408 467.79Z" fill="#DA8676"/>
<path d="M457.68 487.35L450.976 477.21C449.36 474.719 446.592 473.218 443.632 473.218C442.32 473.218 441.344 474.464 441.664 475.725L444.704 487.35H457.68Z" fill="#DA8676"/>
<path d="M251.408 450.927L239.808 470.168L283.472 463.031L251.408 450.927Z" fill="#FFE9D9"/>
<path d="M304.304 449.379L283.472 463.031L315.504 470.169L304.304 449.379Z" fill="#FFE9D9"/>
<path d="M283.472 463.031L275.648 464.309L279.216 497.362C279.408 499.182 280.96 500.571 282.8 500.571H286.112C288.24 500.571 289.904 498.751 289.696 496.643L286.576 463.718L283.472 463.031Z" fill="#FFE9D9"/>
<path d="M259.776 422.505L244.512 416.693C237.936 414.186 233.776 407.655 234.304 400.645L239.232 334.986C239.552 330.739 243.104 327.449 247.376 327.449H254.672L259.776 422.505Z" fill="#232335"/>
<path d="M322.816 402.881C331.696 402.881 338.88 395.695 338.88 386.849C338.88 378.003 331.68 370.818 322.816 370.818V402.881Z" fill="#3E4095"/>
<path d="M315.719 402.874H322.823V370.811H315.719V402.874Z" fill="#3E4095"/>
<path d="M254.96 339.521H310.624L324.896 408.629C326.656 417.14 320.144 425.107 311.44 425.107H267.408C260.528 425.107 254.96 419.551 254.96 412.685V339.521Z" fill="url(#paint1_linear_350_660)"/>
<path d="M254.96 412.684L251.408 450.927L283.472 463.03L304.304 449.378L301.2 425.107L254.96 412.684Z" fill="url(#paint2_linear_350_660)"/>
<path opacity="0.52" d="M301.2 425.107H267.408L303.072 439.798L301.2 425.107Z" fill="#DA8676"/>
<path d="M274.864 354.722H299.968L297.2 344.471L304.544 354.722H323.584C325.952 354.722 327.728 352.535 327.2 350.219L323.552 333.82C322.352 328.423 317.568 324.591 312.032 324.591H251.376L264.88 348.862C266.912 352.487 270.736 354.722 274.864 354.722Z" fill="#232335"/>
<path d="M259.776 339.665V360.758C259.776 364.67 258 368.374 254.944 370.818H247.84L251.392 324.607L259.776 339.665Z" fill="#232335"/>
<path d="M223.44 334.986H219.536C210.464 334.986 202.832 341.804 201.856 350.81L193.936 423.703C193.12 431.271 199.056 437.882 206.688 437.882H208.56L211.664 407.16L212.912 437.882H227.216C229.792 437.882 231.92 435.902 232.112 433.331L238.112 350.698C238.72 342.219 231.984 334.986 223.44 334.986Z" fill="#232335"/>
<path d="M281.92 397.26H311.408C311.408 397.26 308.304 409.364 296.672 409.364C285.04 409.364 281.92 397.26 281.92 397.26Z" fill="white"/>
<path d="M243.008 372.877L246.944 326.858C247.456 320.807 252.544 316.144 258.624 316.144H302.176C306.272 316.144 309.872 318.89 310.944 322.85L311.424 324.623H258.496C256.512 324.623 254.864 326.156 254.704 328.136L251.408 372.143C251.408 372.127 247.696 372.127 243.008 372.877Z" fill="#3E4095"/>
<path d="M247.856 404.206C238.976 404.206 231.792 397.021 231.792 388.175C231.792 379.313 238.992 372.143 247.856 372.143V404.206Z" fill="#3E4095"/>
<path d="M254.96 372.127H247.856V404.19H254.96V372.127Z" fill="#3E4095"/>
<path d="M376.288 587.244L390.768 566.422" stroke="#3E4095" stroke-width="1.4197" stroke-miterlimit="10"/>
<path d="M355.376 519.078L379.2 596.186" stroke="#3E4095" stroke-width="1.4197" stroke-miterlimit="10"/>
<path d="M285.504 561.696L293.12 607.619H190.72C178.368 607.619 169.2 596.154 171.952 584.13L180.848 545.249L285.504 561.696Z" fill="#3E4095"/>
<path d="M285.504 561.695L270.192 559.284L277.84 607.603H293.12L285.504 561.695Z" fill="#FFE9D9"/>
<path d="M238.144 522.59L235.76 553.871L285.504 561.695L287.12 571.42L293.12 607.602" stroke="#3E4095" stroke-width="1.4197" stroke-miterlimit="10"/>
<path d="M350.704 607.092H303.904C303.904 594.078 314.48 583.523 327.52 583.523H331.824C342.256 583.523 350.704 591.954 350.704 602.365V607.092Z" fill="#BFD6DD"/>
<path d="M330.848 576.035L287.104 564.011L291.568 590.933C291.568 590.933 297.456 597.687 308.976 595.244C309.76 595.084 310.56 594.861 311.392 594.605C324.496 590.566 322.8 591.188 322.8 591.188L327.12 599.188C329.408 603.436 333.856 606.086 338.688 606.086H345.648L330.848 576.035Z" fill="url(#paint3_linear_350_660)"/>
<path d="M330.848 576.034L351.248 594.924L350.768 595.355C347.152 598.613 341.424 597.511 339.28 593.152L330.848 576.034Z" fill="#DA8676"/>
<path d="M670.352 575.536H494.416C489.76 575.536 486.288 571.264 487.216 566.704L514.304 434.944C515.44 429.408 520.32 425.424 525.968 425.424H700.08C707.264 425.424 712.624 432.016 711.184 439.04L685.696 562.992C684.208 570.304 677.792 575.536 670.352 575.536Z" fill="#BFD6DD"/>
<path d="M525.984 425.44L494.416 575.536C489.76 575.536 486.288 571.264 487.216 566.704L514.304 434.944C515.44 429.424 520.32 425.44 525.984 425.44Z" fill="#BFD6DD"/>
<path d="M603.696 481.648H649.424L675.248 585.104C678.208 596.96 669.248 608.448 657.024 608.448H605.424L626.4 576.72L603.696 481.648Z" fill="#FFF6EE"/>
<path d="M603.696 481.648L627.344 580.656C630.736 594.816 619.984 608.432 605.424 608.432H540.256V596.752H606.512C612.96 596.752 617.744 590.752 616.304 584.464L592.816 481.632H603.696V481.648Z" fill="#FFC892"/>
<path d="M572.608 442.625C574.32 442.625 575.616 444.177 575.296 445.873L570.224 472.736C569.984 474.032 568.848 474.96 567.536 474.96H567.056C565.328 474.96 564.032 473.377 564.368 471.665L569.92 444.8C570.192 443.536 571.312 442.625 572.608 442.625Z" fill="#BFD6DD"/>
<path d="M583.552 442.625C585.264 442.625 586.56 444.177 586.24 445.873L581.168 472.736C580.928 474.032 579.792 474.96 578.48 474.96H578C576.272 474.96 574.976 473.377 575.312 471.665L580.848 444.8C581.136 443.536 582.256 442.625 583.552 442.625Z" fill="#BFD6DD"/>
<path d="M594.512 442.625C596.224 442.625 597.52 444.177 597.2 445.873L592.128 472.736C591.888 474.032 590.752 474.96 589.44 474.96H588.96C587.232 474.96 585.936 473.377 586.272 471.665L591.808 444.8C592.096 443.536 593.216 442.625 594.512 442.625Z" fill="#BFD6DD"/>
<path d="M605.456 442.625C607.168 442.625 608.464 444.177 608.144 445.873L603.072 472.736C602.832 474.032 601.696 474.96 600.384 474.96H599.904C598.176 474.96 596.88 473.377 597.216 471.665L602.752 444.8C603.04 443.536 604.16 442.625 605.456 442.625Z" fill="#BFD6DD"/>
<path d="M616.416 442.625C618.128 442.625 619.424 444.177 619.104 445.873L614.032 472.736C613.792 474.032 612.656 474.96 611.344 474.96H610.864C609.136 474.96 607.84 473.377 608.176 471.665L613.712 444.8C613.984 443.536 615.104 442.625 616.416 442.625Z" fill="#BFD6DD"/>
<path d="M627.36 442.625C629.072 442.625 630.368 444.177 630.048 445.873L624.976 472.736C624.736 474.032 623.6 474.96 622.288 474.96H621.808C620.08 474.96 618.784 473.377 619.12 471.665L624.656 444.8C624.944 443.536 626.064 442.625 627.36 442.625Z" fill="#BFD6DD"/>
<path d="M638.304 442.625C640.016 442.625 641.312 444.177 640.992 445.873L635.92 472.736C635.68 474.032 634.544 474.96 633.232 474.96H632.752C631.024 474.96 629.728 473.377 630.064 471.665L635.6 444.8C635.888 443.536 637.008 442.625 638.304 442.625Z" fill="#BFD6DD"/>
<path d="M649.264 442.625C650.976 442.625 652.272 444.177 651.952 445.873L646.88 472.736C646.64 474.032 645.504 474.96 644.192 474.96H643.712C641.984 474.96 640.688 473.377 641.024 471.665L646.56 444.8C646.848 443.536 647.968 442.625 649.264 442.625Z" fill="#BFD6DD"/>
<path d="M660.208 442.625C661.92 442.625 663.216 444.177 662.896 445.873L657.824 472.736C657.584 474.032 656.448 474.96 655.136 474.96H654.656C652.928 474.96 651.632 473.377 651.968 471.665L657.504 444.8C657.792 443.536 658.912 442.625 660.208 442.625Z" fill="#BFD6DD"/>
<path d="M671.168 442.625C672.88 442.625 674.176 444.177 673.856 445.873L668.784 472.736C668.544 474.032 667.408 474.96 666.096 474.96H665.616C663.888 474.96 662.592 473.377 662.928 471.665L668.48 444.8C668.752 443.536 669.872 442.625 671.168 442.625Z" fill="#BFD6DD"/>
<path d="M613.504 395.936H548.08V308.72H598.432C604.32 314.608 607.616 317.904 613.504 323.792V395.936Z" fill="#FFE9D9"/>
<path d="M598.432 308.736V323.472H613.504L598.432 308.736Z" fill="#FFF6EE"/>
<path d="M597.04 331.472H563.024C562.256 331.472 561.648 330.848 561.648 330.096C561.648 329.328 562.272 328.72 563.024 328.72H597.04C597.808 328.72 598.416 329.344 598.416 330.096C598.432 330.848 597.808 331.472 597.04 331.472Z" fill="#232335"/>
<path d="M597.04 341.392H563.024C562.256 341.392 561.648 340.768 561.648 340.016C561.648 339.248 562.272 338.64 563.024 338.64H597.04C597.808 338.64 598.416 339.264 598.416 340.016C598.432 340.768 597.808 341.392 597.04 341.392Z" fill="#232335"/>
<path d="M597.04 351.312H563.024C562.256 351.312 561.648 350.688 561.648 349.936C561.648 349.168 562.272 348.56 563.024 348.56H597.04C597.808 348.56 598.416 349.184 598.416 349.936C598.432 350.704 597.808 351.312 597.04 351.312Z" fill="#232335"/>
<path d="M597.04 361.248H563.024C562.256 361.248 561.648 360.624 561.648 359.872C561.648 359.104 562.272 358.496 563.024 358.496H597.04C597.808 358.496 598.416 359.12 598.416 359.872C598.432 360.624 597.808 361.248 597.04 361.248Z" fill="#232335"/>
<path d="M597.04 371.168H563.024C562.256 371.168 561.648 370.544 561.648 369.792C561.648 369.024 562.272 368.416 563.024 368.416H597.04C597.808 368.416 598.416 369.04 598.416 369.792C598.432 370.56 597.808 371.168 597.04 371.168Z" fill="#232335"/>
<path d="M597.04 381.104H563.024C562.256 381.104 561.648 380.48 561.648 379.728C561.648 378.96 562.272 378.352 563.024 378.352H597.04C597.808 378.352 598.416 378.976 598.416 379.728C598.432 380.48 597.808 381.104 597.04 381.104Z" fill="#232335"/>
<path d="M560.624 222.064L568.144 208.016C569.44 205.6 572.736 205.168 574.608 207.184L576.608 209.344C583.6 216.88 585.264 227.92 580.8 237.184L565.984 267.904C560.976 278.272 549.536 283.888 538.272 281.488L536.176 281.04C533.088 280.384 531.552 276.88 533.168 274.16L542.064 259.168C543.216 257.216 545.92 256.896 547.504 258.512L548.784 259.824C551.552 262.656 556.256 262.048 558.224 258.624L570.352 237.488C572.144 234.352 570.784 230.368 567.44 228.992L562.368 226.912C560.48 226.128 559.664 223.872 560.624 222.064Z" fill="#232335"/>
<path d="M497.456 271.664H393.776C383.92 271.664 375.92 279.664 375.92 289.52V357.168C375.92 367.024 383.92 375.024 393.776 375.024C393.776 375.024 384.608 396.064 371.584 396.064C371.584 396.064 409.872 399.008 418.368 375.024H497.472C507.328 375.024 515.328 367.024 515.328 357.168V289.52C515.312 279.664 507.328 271.664 497.456 271.664Z" fill="#FFF6EE"/>
<path d="M490.384 301.408H405.984C404.864 301.408 403.952 300.496 403.952 299.392C403.952 298.272 404.864 297.376 405.984 297.376H490.384C491.504 297.376 492.416 298.288 492.416 299.392C492.416 300.496 491.504 301.408 490.384 301.408Z" fill="#232335"/>
<path d="M490.384 317.472H405.984C404.864 317.472 403.952 316.56 403.952 315.44C403.952 314.32 404.864 313.424 405.984 313.424H490.384C491.504 313.424 492.416 314.336 492.416 315.44C492.416 316.56 491.504 317.472 490.384 317.472Z" fill="#232335"/>
<path d="M490.384 333.536H405.984C404.864 333.536 403.952 332.624 403.952 331.52C403.952 330.4 404.864 329.488 405.984 329.488H490.384C491.504 329.488 492.416 330.4 492.416 331.52C492.416 332.624 491.504 333.536 490.384 333.536Z" fill="#232335"/>
<path d="M490.384 349.584H405.984C404.864 349.584 403.952 348.672 403.952 347.568C403.952 346.448 404.864 345.536 405.984 345.536H490.384C491.504 345.536 492.416 346.448 492.416 347.568C492.416 348.688 491.504 349.584 490.384 349.584Z" fill="#232335"/>
<path d="M489.936 392.656H443.872C441.136 392.656 438.912 394.88 438.912 397.616V416.432C438.912 419.168 441.136 421.392 443.872 421.392C443.872 421.392 441.328 427.248 437.696 427.248C437.696 427.248 448.336 428.064 450.704 421.392H489.936C492.672 421.392 494.896 419.168 494.896 416.432V397.616C494.896 394.88 492.672 392.656 489.936 392.656Z" fill="#FFF6EE"/>
<path d="M474.992 192.72C474.992 178.944 463.072 167.952 448.976 169.52C438.576 170.672 430.016 178.912 428.544 189.28C427.232 198.464 431.264 206.816 438 211.664C440.912 213.76 442.64 217.104 442.64 220.688V227.648H460.672V220.688C460.672 217.104 462.416 213.76 465.312 211.648C471.168 207.424 474.992 200.528 474.992 192.72Z" fill="#FFC892"/>
<path d="M459.84 234.624H443.44C441.52 234.624 439.952 233.056 439.952 231.136C439.952 229.216 441.52 227.648 443.44 227.648H459.84C461.76 227.648 463.328 229.216 463.328 231.136C463.312 233.056 461.76 234.624 459.84 234.624Z" fill="#ACC1C6"/>
<path d="M459.84 241.6H443.44C441.52 241.6 439.952 240.032 439.952 238.112C439.952 236.192 441.52 234.624 443.44 234.624H459.84C461.76 234.624 463.328 236.192 463.328 238.112C463.312 240.032 461.76 241.6 459.84 241.6Z" fill="#ACC1C6"/>
<path d="M446.512 227.648L441.408 201.616" stroke="white" stroke-width="0.944" stroke-miterlimit="10"/>
<path d="M456.688 227.648L460.464 201.616" stroke="white" stroke-width="0.944" stroke-miterlimit="10"/>
<path d="M438.576 204.64C438.576 204.64 445.936 204.096 447.44 198.512C448.944 192.928 446.112 187.088 443.008 187.088C439.888 187.088 443.104 202.368 449.52 202.56C455.936 202.752 457.44 198.224 458.576 194.816C459.712 191.424 459.136 186.128 456.688 185.952C454.24 185.76 450.304 203.568 463.312 205.904" stroke="white" stroke-width="0.944" stroke-miterlimit="10"/>
<path d="M350.112 234.624H253.808V293.472H350.112V234.624Z" fill="#FFE9D9"/>
<path d="M253.808 234.624L304.304 276.08L350.128 234.624H253.808Z" fill="#FFF6EE"/>
<path d="M362.569 246.026C368.684 239.106 368.031 228.539 361.111 222.424C354.191 216.309 343.624 216.962 337.509 223.882C331.394 230.802 332.047 241.369 338.967 247.484C345.887 253.599 356.454 252.946 362.569 246.026Z" fill="#FF838F"/>
<path d="M360.298 237.139V232.787H339.738V237.139H360.298Z" fill="white"/>
<path d="M352.192 224.672H347.84V245.232H352.192V224.672Z" fill="white"/>
<path d="M166.656 554.368H107.04V566.672H166.656V554.368Z" fill="#BFD6DD"/>
<path d="M157.072 608.912H116.624L113.024 566.656H160.672L157.072 608.912Z" fill="#BFD6DD"/>
<path d="M143.52 499.488L142.48 492.48L145.264 498.992L143.52 499.488Z" fill="#FFE9D9"/>
<path d="M136.048 502.576L134.448 497.68L137.648 501.712L136.048 502.576Z" fill="#FFE9D9"/>
<path d="M130.16 511.584L125.04 506.864L131.2 510.096L130.16 511.584Z" fill="#FFE9D9"/>
<path d="M129.792 523.984L124.112 521.36L130.32 522.24L129.792 523.984Z" fill="#FFE9D9"/>
<path d="M151.28 498.912L154.432 493.024L152.992 499.552L151.28 498.912Z" fill="#FFE9D9"/>
<path d="M159.088 505.84L164.848 503.424L160.032 507.392L159.088 505.84Z" fill="#FFE9D9"/>
<path d="M159.696 519.536L165.392 518.592L160.288 521.264L159.696 519.536Z" fill="#FFE9D9"/>
<path d="M159.76 532.528L165.392 531.984L160.224 534.288L159.76 532.528Z" fill="#FFE9D9"/>
<path d="M128.016 554.368C128.016 554.368 129.2 517.088 129.2 515.104C129.2 513.12 128.608 503.808 142.864 499.648C157.136 495.488 160.432 501.232 160.656 510.736C160.88 520.24 160.656 554.352 160.656 554.352H128.016V554.368Z" fill="#A7D3B0"/>
<path d="M142.88 499.648C142.88 499.648 145.808 500.88 145.152 513.504C144.48 526.128 144.4 554.368 144.4 554.368H160.672L160.768 512.512C160.768 512.512 161.312 499.104 153.44 498.496C145.584 497.888 142.88 499.648 142.88 499.648Z" fill="#BAD6C1"/>
<path d="M113.024 566.656H160.672L113.936 577.36L113.024 566.656Z" fill="#BFD6DD"/>
<path d="M115.472 546.848L111.168 544.048L116.176 545.168L115.472 546.848Z" fill="#FFE9D9"/>
<path d="M118.048 538.224L115.36 533.728L119.44 537.04L118.048 538.224Z" fill="#FFE9D9"/>
<path d="M124.128 534.576L125.04 529.328L125.952 534.576H124.128Z" fill="#FFE9D9"/>
<path d="M129.888 535.424L133.072 533.728L131.136 536.768L129.888 535.424Z" fill="#FFE9D9"/>
<path d="M132.768 544.464L138.16 543.504L133.376 546.176L132.768 544.464Z" fill="#FFE9D9"/>
<path d="M114.336 554.368C114.336 554.368 113.008 533.728 125.04 533.728C135.936 533.728 135.344 554.368 135.344 554.368H114.336Z" fill="#BAD6C1"/>
<path d="M512.096 607.488H418.16C418.16 602.08 422.544 597.696 427.952 597.696H502.288C507.712 597.696 512.096 602.08 512.096 607.488Z" fill="#BFD6DD"/>
<path d="M532.528 179.2L529.776 170.816C528.88 168.096 527.376 165.6 525.376 163.552L521.792 159.856L526.432 154.144C527.744 152.528 528.784 150.704 529.488 148.768L532.512 140.528L535.472 148.672C536.192 150.672 537.264 152.544 538.608 154.192L543.248 159.856L539.68 163.504C537.632 165.584 536.112 168.128 535.2 170.896L532.528 179.2Z" fill="#FFE9D9"/>
<path d="M612.096 274.688L609.744 267.52C608.976 265.184 607.696 263.056 605.984 261.296L602.912 258.144L606.88 253.248C608 251.872 608.88 250.304 609.504 248.64L612.096 241.6L614.624 248.576C615.248 250.288 616.16 251.888 617.312 253.296L621.28 258.144L618.224 261.264C616.48 263.056 615.168 265.216 614.4 267.6L612.096 274.688Z" fill="#FFE9D9"/>
<path d="M376.848 201.696L374.704 195.152C374 193.024 372.832 191.088 371.264 189.472L368.464 186.592L372.08 182.128C373.104 180.864 373.904 179.456 374.464 177.92L376.832 171.488L379.152 177.856C379.728 179.424 380.544 180.88 381.6 182.16L385.216 186.576L382.432 189.424C380.832 191.056 379.648 193.024 378.944 195.2L376.848 201.696Z" fill="#FFE9D9"/>
<path d="M412.352 451.952L409.6 443.568C408.704 440.848 407.2 438.352 405.2 436.304L401.616 432.608L406.256 426.896C407.568 425.28 408.608 423.456 409.312 421.52L412.352 413.28L415.312 421.424C416.048 423.424 417.104 425.296 418.448 426.944L423.088 432.608L419.52 436.256C417.472 438.336 415.952 440.88 415.04 443.648L412.352 451.952Z" fill="#FFE9D9"/>
<path d="M206.432 315.536L204.64 310.112C204.064 308.352 203.088 306.736 201.792 305.408L199.472 303.024L202.48 299.312C203.328 298.272 204 297.088 204.464 295.824L206.432 290.496L208.352 295.776C208.816 297.072 209.504 298.288 210.384 299.36L213.392 303.024L211.088 305.392C209.76 306.752 208.768 308.384 208.192 310.176L206.432 315.536Z" fill="#FFE9D9"/>
<path d="M726.048 607.68H71.856V644.784H726.048V607.68Z" fill="#A9ACFB"/>
<path d="M344.99 210.49L354.071 209.135L349.554 203.61L348.622 205.014C346.797 204.547 344.271 203.667 342.026 202.01C337.508 198.676 337.451 194.649 337.475 193.704C337.065 194.38 334.338 199.109 338.076 203.94C340.328 206.849 343.824 208.372 345.926 209.079L344.99 210.49Z" fill="#E11C1C"/>
<path d="M333.654 191.525C333.374 191.525 333.147 191.313 333.147 191.052V181.909H314.533C314.398 181.909 314.269 181.859 314.174 181.77L306.491 174.598H285.898C285.618 174.598 285.391 174.386 285.391 174.125V137.397C285.391 137.136 285.618 136.924 285.898 136.924C286.178 136.924 286.405 137.136 286.405 137.397V173.651H306.701C306.835 173.651 306.964 173.701 307.06 173.79L314.743 180.962H333.654C333.934 180.962 334.161 181.174 334.161 181.435V191.052C334.161 191.313 333.934 191.525 333.654 191.525Z" fill="#3E4095"/>
<path d="M285.898 191.525C285.618 191.525 285.39 191.313 285.39 191.051V181.435C285.39 181.174 285.618 180.962 285.898 180.962H304.809L312.492 173.79C312.587 173.701 312.716 173.651 312.851 173.651H333.147V149.155C333.147 148.894 333.374 148.682 333.654 148.682C333.934 148.682 334.161 148.894 334.161 149.155V174.125C334.161 174.386 333.934 174.598 333.654 174.598H313.061L305.377 181.77C305.282 181.859 305.153 181.909 305.019 181.909H286.405V191.052C286.405 191.313 286.178 191.525 285.898 191.525Z" fill="#D87355"/>
<path d="M356.8 144.377L354.117 137.206L347.528 141.665L349.42 142.218C349.014 143.766 348.155 145.941 346.271 148.002C342.483 152.146 337.343 152.771 336.131 152.888C337.039 153.123 343.37 154.656 349.152 150.928C352.635 148.682 354.214 145.627 354.898 143.821L356.8 144.377Z" fill="#3E4095"/>
<path d="M281.247 133.891H290.485L285.888 129.6L281.247 133.891Z" fill="#E6D0BE"/>
<path d="M329.064 146.285H338.302L333.704 141.994L329.064 146.285Z" fill="#E6D0BE"/>
<path d="M339.262 160.615H336.914V158.242C336.914 155.63 334.808 153.503 332.218 153.503C329.628 153.503 327.522 155.63 327.522 158.242V160.615H325.174V158.242C325.174 155.63 323.068 153.503 320.478 153.503C317.888 153.503 315.782 155.63 315.782 158.242V160.615H313.434V158.242C313.434 155.63 311.328 153.503 308.738 153.503C306.148 153.503 304.042 155.63 304.042 158.242V160.615H301.694V158.242C301.694 155.63 299.588 153.503 296.998 153.503C294.408 153.503 292.302 155.63 292.302 158.242V160.615H289.954V158.242C289.954 155.63 287.848 153.503 285.258 153.503C282.668 153.503 280.562 155.63 280.562 158.242V160.615H278.214V159.43H275.866V161.8V168.912V171.282H278.214V170.097H280.562V196.175C280.562 198.788 282.668 200.914 285.258 200.914C287.848 200.914 289.954 198.788 289.954 196.175V194.988H292.302V196.175C292.302 198.788 294.408 200.914 296.998 200.914C299.588 200.914 301.694 198.788 301.694 196.175V194.988H304.042V196.175C304.042 198.788 306.148 200.914 308.738 200.914C311.328 200.914 313.434 198.788 313.434 196.175V194.988H315.782V196.175C315.782 198.788 317.888 200.914 320.478 200.914C323.068 200.914 325.174 198.788 325.174 196.175V194.988H327.522V196.175C327.522 198.788 329.628 200.914 332.218 200.914C334.808 200.914 336.914 198.788 336.914 196.175V170.097H339.262C339.911 170.097 340.436 169.567 340.436 168.912V161.8C340.436 161.145 339.911 160.615 339.262 160.615ZM327.522 162.985V167.726H325.174V162.985H327.522ZM315.782 162.985V167.726H313.434V162.985H315.782ZM304.042 162.985V167.726H301.694V162.985H304.042ZM292.302 162.985V167.726H289.954V162.985H292.302ZM278.214 167.726V162.985H280.562V167.726H278.214ZM287.606 196.175C287.606 197.482 286.552 198.544 285.258 198.544C283.964 198.544 282.91 197.482 282.91 196.175V168.912V161.8V158.242C282.91 156.936 283.964 155.874 285.258 155.874C286.552 155.874 287.606 156.936 287.606 158.242V161.8V168.912V192.617V194.988V196.175ZM289.954 192.617V170.097H292.302V192.617H289.954ZM299.346 196.175C299.346 197.482 298.293 198.544 296.998 198.544C295.703 198.544 294.65 197.482 294.65 196.175V168.912V161.8V158.242C294.65 156.936 295.703 155.874 296.998 155.874C298.293 155.874 299.346 156.936 299.346 158.242V161.8V168.912V196.175ZM301.694 192.617V170.097H304.042V192.617H301.694ZM311.086 196.175C311.086 197.482 310.033 198.544 308.738 198.544C307.443 198.544 306.39 197.482 306.39 196.175V194.988V192.617V168.912V161.8V158.242C306.39 156.936 307.443 155.874 308.738 155.874C310.033 155.874 311.086 156.936 311.086 158.242V161.8V168.912V192.617V194.988V196.175ZM313.434 192.617V170.097H315.782V192.617H313.434ZM322.826 196.175C322.826 197.482 321.773 198.544 320.478 198.544C319.183 198.544 318.13 197.482 318.13 196.175V168.912V161.8V158.242C318.13 156.936 319.183 155.874 320.478 155.874C321.773 155.874 322.826 156.936 322.826 158.242V161.8V168.912V192.617V194.988V196.175ZM325.174 192.617V170.097H327.522V192.617H325.174ZM334.566 196.175C334.566 197.482 333.513 198.544 332.218 198.544C330.923 198.544 329.87 197.482 329.87 196.175V168.912V161.8V158.242C329.87 156.936 330.923 155.874 332.218 155.874C333.513 155.874 334.566 156.936 334.566 158.242V161.8V168.912V196.175ZM338.088 167.726H336.914V162.985H338.088V167.726Z" fill="#3E4095"/>
<path d="M272.934 221.147L266.722 216.443L269.939 209.44L270.55 211.829C271.813 211.66 273.567 211.075 275.144 209.235C278.316 205.534 278.437 199.482 278.441 198.05C278.708 199.189 280.486 207.117 277.818 213.301C276.211 217.027 273.778 218.296 272.32 218.746L272.934 221.147Z" fill="#3E4095"/>
<path d="M269.171 139.379L260.8 141.231L265.595 146.652L266.325 145.167C268.082 145.551 270.539 146.322 272.812 147.902C277.384 151.081 277.847 155.197 277.921 156.166C278.236 155.453 280.311 150.474 276.316 145.725C273.909 142.864 270.479 141.486 268.438 140.87L269.171 139.379Z" fill="#E11C1C"/>
<path d="M280.46 375.058C280.54 375.886 280.375 376.718 279.986 377.453C279.597 378.187 279 378.791 278.27 379.189C277.54 379.587 276.71 379.762 275.881 379.691C275.053 379.621 274.264 379.309 273.612 378.794C272.959 378.278 272.473 377.583 272.213 376.793C271.953 376.004 271.931 375.155 272.149 374.353C272.367 373.551 272.816 372.831 273.441 372.282C274.065 371.733 274.837 371.38 275.66 371.266C276.225 371.199 276.797 371.245 277.343 371.399C277.89 371.553 278.401 371.814 278.847 372.167C279.293 372.519 279.665 372.956 279.942 373.452C280.219 373.948 280.395 374.494 280.46 375.058Z" fill="#263238"/>
<path d="M310.509 371.33C310.675 372.346 310.432 373.387 309.832 374.224C309.232 375.061 308.324 375.626 307.309 375.794C306.792 375.891 306.261 375.876 305.75 375.75C305.24 375.624 304.763 375.39 304.35 375.064C303.938 374.738 303.6 374.328 303.36 373.86C303.119 373.393 302.982 372.879 302.957 372.354C302.889 371.854 302.921 371.346 303.05 370.858C303.18 370.37 303.404 369.913 303.71 369.512C304.016 369.111 304.398 368.774 304.834 368.52C305.27 368.267 305.752 368.101 306.253 368.034C306.753 367.967 307.261 367.999 307.749 368.128C308.236 368.257 308.694 368.481 309.095 368.788C309.496 369.094 309.833 369.476 310.087 369.912C310.34 370.348 310.505 370.83 310.573 371.33H310.509Z" fill="#263238"/>
</g>
<defs>
<linearGradient id="paint0_linear_350_660" x1="467.685" y1="468.142" x2="467.685" y2="514.018" gradientUnits="userSpaceOnUse">
<stop stop-color="#DA8676"/>
<stop offset="0.3566" stop-color="#E39E91"/>
<stop offset="0.753" stop-color="#EAB2A8"/>
<stop offset="1" stop-color="#EDBAB1"/>
</linearGradient>
<linearGradient id="paint1_linear_350_660" x1="290.069" y1="338.059" x2="290.069" y2="468.67" gradientUnits="userSpaceOnUse">
<stop stop-color="#DA8676"/>
<stop offset="0.3566" stop-color="#E39E91"/>
<stop offset="0.753" stop-color="#EAB2A8"/>
<stop offset="1" stop-color="#EDBAB1"/>
</linearGradient>
<linearGradient id="paint2_linear_350_660" x1="277.854" y1="338.059" x2="277.854" y2="468.669" gradientUnits="userSpaceOnUse">
<stop stop-color="#DA8676"/>
<stop offset="0.3566" stop-color="#E39E91"/>
<stop offset="0.753" stop-color="#EAB2A8"/>
<stop offset="1" stop-color="#EDBAB1"/>
</linearGradient>
<linearGradient id="paint3_linear_350_660" x1="350.083" y1="585.055" x2="289.849" y2="585.055" gradientUnits="userSpaceOnUse">
<stop stop-color="#DA8676"/>
<stop offset="0.3566" stop-color="#E39E91"/>
<stop offset="0.753" stop-color="#EAB2A8"/>
<stop offset="1" stop-color="#EDBAB1"/>
</linearGradient>
<clipPath id="clip0_350_660">
<rect width="800" height="800" fill="white"/>
</clipPath>
</defs>
</svg>
