<svg width="60" height="61" viewBox="0 0 60 61" fill="none" xmlns="http://www.w3.org/2000/svg">
<path d="M16.3333 31.8333H43.6667V36.9667H46.3333V29.1667H31.3333V23.8333H28.6667V29.1667H13.6667V36.9667H16.3333V31.8333Z" fill="black"/>
<path d="M23.3333 38.8333H6.66667C5.78261 38.8333 4.93477 39.1845 4.30964 39.8096C3.68452 40.4348 3.33333 41.2826 3.33333 42.1667V52.1667C3.33333 53.0507 3.68452 53.8986 4.30964 54.5237C4.93477 55.1488 5.78261 55.5 6.66667 55.5H23.3333C24.2174 55.5 25.0652 55.1488 25.6904 54.5237C26.3155 53.8986 26.6667 53.0507 26.6667 52.1667V42.1667C26.6667 41.2826 26.3155 40.4348 25.6904 39.8096C25.0652 39.1845 24.2174 38.8333 23.3333 38.8333ZM6.66667 52.1667V42.1667H23.3333V52.1667H6.66667Z" fill="#0006FF"/>
<path d="M53.3333 38.8333H36.6667C35.7826 38.8333 34.9348 39.1845 34.3096 39.8096C33.6845 40.4348 33.3333 41.2826 33.3333 42.1667V52.1667C33.3333 53.0507 33.6845 53.8986 34.3096 54.5237C34.9348 55.1488 35.7826 55.5 36.6667 55.5H53.3333C54.2174 55.5 55.0652 55.1488 55.6904 54.5237C56.3155 53.8986 56.6667 53.0507 56.6667 52.1667V42.1667C56.6667 41.2826 56.3155 40.4348 55.6904 39.8096C55.0652 39.1845 54.2174 38.8333 53.3333 38.8333ZM36.6667 52.1667V42.1667H53.3333V52.1667H36.6667Z" fill="#0006FA"/>
<path d="M21.6667 22.1667H38.3333C39.2174 22.1667 40.0652 21.8155 40.6904 21.1904C41.3155 20.5652 41.6667 19.7174 41.6667 18.8333V8.83333C41.6667 7.94928 41.3155 7.10143 40.6904 6.47631C40.0652 5.85119 39.2174 5.5 38.3333 5.5H21.6667C20.7826 5.5 19.9348 5.85119 19.3096 6.47631C18.6845 7.10143 18.3333 7.94928 18.3333 8.83333V18.8333C18.3333 19.7174 18.6845 20.5652 19.3096 21.1904C19.9348 21.8155 20.7826 22.1667 21.6667 22.1667ZM21.6667 8.83333H38.3333V18.8333H21.6667V8.83333Z" fill="black"/>
</svg>
