<svg width="104" height="136" viewBox="0 0 104 136" fill="none" xmlns="http://www.w3.org/2000/svg">
<path d="M92.6475 97.2973C87.976 91.3408 65.499 87.0854 65.499 87.0854H38.4995C38.4995 87.0854 16.024 91.3408 11.3524 97.2973C6.68038 103.256 2 133.916 2 133.916H102C102 133.916 97.3186 103.256 92.6475 97.2973Z" fill="white" stroke="#3E4095" stroke-width="3.5" stroke-miterlimit="10" stroke-linecap="round" stroke-linejoin="round"/>
<path d="M66.0887 94.2703C65.5114 90.8946 56.4411 90.9595 52.0003 91.197C47.5589 90.9595 38.4891 90.8946 37.9118 94.2703C37.1444 98.7506 41.406 133.597 41.406 133.597H62.5935C62.5935 133.597 66.8561 98.7506 66.0887 94.2703Z" fill="white" stroke="#3E4095" stroke-width="3.5" stroke-miterlimit="10" stroke-linecap="round" stroke-linejoin="round"/>
<path d="M59.3747 86.8974C59.3747 90.9694 56.0727 94.2703 52.0013 94.2703C47.9283 94.2703 44.6264 90.9688 44.6264 86.8974V74.6228C44.6264 70.5524 47.9283 67.25 52.0013 67.25C56.0727 67.25 59.3747 70.5524 59.3747 74.6228V86.8974Z" fill="white" stroke="#3E4095" stroke-width="3.5" stroke-miterlimit="10" stroke-linecap="round" stroke-linejoin="round"/>
<path d="M66.2596 85.5616L59.3747 85.1049C59.3747 85.1049 55.9647 90.7896 52.0013 90.7896C48.0369 90.7896 44.6264 85.1049 44.6264 85.1049L37.7409 85.5616C37.7409 85.5616 37.1891 99.9394 40.716 105.274L52.0018 91.3705L63.2856 105.274C66.812 99.9394 66.2596 85.5616 66.2596 85.5616Z" fill="white" stroke="#3E4095" stroke-width="3.5" stroke-miterlimit="10" stroke-linecap="round" stroke-linejoin="round"/>
<path d="M59.3747 133.916L55.5516 105.274H48.4489L44.6259 133.916H59.3747Z" fill="white" stroke="#3E4095" stroke-width="3.5" stroke-miterlimit="10" stroke-linecap="round" stroke-linejoin="round"/>
<path d="M58.3236 99.3481L52.0013 91.3705L45.6765 99.3481L48.4489 105.274H55.5516L58.3236 99.3481Z" fill="white" stroke="#3E4095" stroke-width="3.5" stroke-miterlimit="10" stroke-linecap="round" stroke-linejoin="round"/>
<path d="M38.0994 86.5186L44.6258 133.916H34.9882L29.5944 121.305L35.4979 114.283L26.3719 106.704C26.3719 106.704 29.0177 90.5827 31.4446 88.6701C33.8711 86.7581 38.0994 86.5186 38.0994 86.5186Z" fill="white" stroke="#3E4095" stroke-width="3.5" stroke-miterlimit="10" stroke-linecap="round" stroke-linejoin="round"/>
<path d="M65.9006 86.5186L59.3747 133.916H69.0118L74.4061 121.305L68.5016 114.283L77.6291 106.704C77.6291 106.704 74.9829 90.5827 72.5559 88.6701C70.1284 86.7581 65.9006 86.5186 65.9006 86.5186Z" fill="white" stroke="#3E4095" stroke-width="3.5" stroke-miterlimit="10" stroke-linecap="round" stroke-linejoin="round"/>
<path d="M30.9936 44.8524C32.5363 50.9315 29.3517 56.9851 23.8806 58.3729C18.4099 59.7613 12.7241 55.959 11.1815 49.8804C9.63887 43.8018 12.8234 37.7482 18.2945 36.3599C23.7657 34.9715 29.451 38.7738 30.9936 44.8524Z" fill="white" stroke="#3E4095" stroke-width="3.5" stroke-miterlimit="10" stroke-linecap="round" stroke-linejoin="round"/>
<path d="M73.0064 44.8524C71.4637 50.9315 74.6482 56.9851 80.1194 58.3729C85.5901 59.7613 91.2764 55.959 92.8185 49.8804C94.3611 43.8018 91.1771 37.7482 85.706 36.3599C80.2353 34.9715 74.549 38.7738 73.0064 44.8524Z" fill="white" stroke="#3E4095" stroke-width="3.5" stroke-miterlimit="10" stroke-linecap="round" stroke-linejoin="round"/>
<path d="M52.0002 80.6759C69.8392 80.6759 84.3005 63.277 84.3005 41.8144C84.3005 20.3518 69.8392 2.95288 52.0002 2.95288C34.1613 2.95288 19.7 20.3518 19.7 41.8144C19.7 63.277 34.1613 80.6759 52.0002 80.6759Z" fill="white" stroke="#3E4095" stroke-width="3.5" stroke-miterlimit="10" stroke-linecap="round" stroke-linejoin="round"/>
<path d="M51.995 2C17.934 2 19.6138 36.4523 19.6138 36.4523C19.6138 36.4523 31.8821 36.2881 41.4881 26.6468C43.1035 25.0252 44.4029 23.5039 45.4582 22.0813C47.4103 26.8822 50.5688 31.6608 55.6685 33.8123C67.7363 38.9032 84.3867 36.4523 84.3867 36.4523C84.3867 36.4523 86.0561 2 51.995 2Z" fill="white" stroke="#3E4095" stroke-width="3.5" stroke-miterlimit="10" stroke-linecap="round" stroke-linejoin="round"/>
<path d="M67.1408 49.2589C68.883 49.2589 70.2952 47.8467 70.2952 46.1046C70.2952 44.3625 68.883 42.9502 67.1408 42.9502C65.3987 42.9502 63.9865 44.3625 63.9865 46.1046C63.9865 47.8467 65.3987 49.2589 67.1408 49.2589Z" fill="#3E4095"/>
<path d="M36.8597 49.2589C38.6018 49.2589 40.0141 47.8467 40.0141 46.1046C40.0141 44.3625 38.6018 42.9502 36.8597 42.9502C35.1176 42.9502 33.7053 44.3625 33.7053 46.1046C33.7053 47.8467 35.1176 49.2589 36.8597 49.2589Z" fill="#3E4095"/>
<path d="M49.7219 42.5719C49.7219 42.5719 47.1983 54.1798 48.2078 57.208C49.2174 60.2361 56.0312 58.722 56.0312 58.722" stroke="#3E4095" stroke-width="3.5" stroke-miterlimit="10" stroke-linecap="round" stroke-linejoin="round"/>
<path d="M41.843 65.5353C43.4953 70.1273 47.4202 73.3581 52.0003 73.3581C56.5798 73.3581 60.5048 70.1273 62.1575 65.5353H41.843Z" fill="white" stroke="#3E4095" stroke-width="3.5" stroke-miterlimit="10" stroke-linecap="round" stroke-linejoin="round"/>
<path d="M24.4698 30.9682C24.4698 20.7044 32.821 7.30594 43.0853 7.30594H60.9152C71.1795 7.30594 79.5318 20.7044 79.5318 30.9682V42.4898H83.7721V30.9682C83.7721 18.3652 73.5187 3.06409 60.9152 3.06409H43.0853C30.4823 3.06409 20.2295 18.3652 20.2295 30.9682V42.4898H24.4703L24.4698 30.9682Z" fill="white" stroke="#3E4095" stroke-width="3.5" stroke-miterlimit="10" stroke-linecap="round" stroke-linejoin="round"/>
<path d="M9.08759 49.2485C9.08759 55.564 13.3123 60.7281 18.651 61.1235V37.3735C13.3123 37.7689 9.08759 42.9336 9.08759 49.2485Z" fill="white" stroke="#3E4095" stroke-width="3.5" stroke-miterlimit="10" stroke-linecap="round" stroke-linejoin="round"/>
<path d="M24.7805 60.4232C24.7805 61.3538 24.0271 62.1092 23.0965 62.1092H19.9608C19.0313 62.1092 18.2769 61.3533 18.2769 60.4232V38.074C18.2769 37.1429 19.0313 36.39 19.9608 36.39H23.0965C24.0271 36.39 24.7805 37.1429 24.7805 38.074V60.4232Z" fill="white" stroke="#3E4095" stroke-width="3.5" stroke-miterlimit="10" stroke-linecap="round" stroke-linejoin="round"/>
<path d="M94.9129 49.2485C94.9129 55.564 90.6892 60.7281 85.3506 61.1235V37.3735C90.6892 37.7689 94.9129 42.9336 94.9129 49.2485Z" fill="white" stroke="#3E4095" stroke-width="3.5" stroke-miterlimit="10" stroke-linecap="round" stroke-linejoin="round"/>
<path d="M79.2211 60.4232C79.2211 61.3538 79.9739 62.1092 80.9035 62.1092H84.0391C84.9687 62.1092 85.7236 61.3533 85.7236 60.4232V38.074C85.7236 37.1429 84.9687 36.39 84.0391 36.39H80.9035C79.9739 36.39 79.2211 37.1429 79.2211 38.074V60.4232Z" fill="white" stroke="#3E4095" stroke-width="3.5" stroke-miterlimit="10" stroke-linecap="round" stroke-linejoin="round"/>
<path d="M46.4771 72.929C46.4704 72.929 46.4631 72.929 46.4558 72.929C45.9097 72.9196 33.0247 72.7419 29.9098 72.1361C26.2774 71.4295 21.5586 60.9355 20.8176 58.7694C20.5345 57.937 20.9777 57.0335 21.809 56.7503C22.6388 56.465 23.5428 56.9088 23.8281 57.7385C25.1717 61.665 29.4167 68.7999 30.5166 69.014C32.8714 69.4727 42.8515 69.6982 46.4984 69.7481C47.377 69.7595 48.079 70.4818 48.067 71.3593C48.0551 72.2301 47.3459 72.929 46.4771 72.929Z" fill="white" stroke="#3E4095" stroke-width="3.5" stroke-miterlimit="10" stroke-linecap="round" stroke-linejoin="round"/>
<path d="M56.6292 70.742C56.6292 72.4837 55.2175 73.8964 53.4758 73.8964H46.3711C44.6295 73.8964 43.2178 72.4837 43.2178 70.742V70.342C43.2178 68.6003 44.6295 67.1881 46.3711 67.1881H53.4758C55.2175 67.1881 56.6292 68.6003 56.6292 70.342V70.742Z" fill="white" stroke="#3E4095" stroke-width="3.5" stroke-miterlimit="10" stroke-linecap="round" stroke-linejoin="round"/>
</svg>
