<svg width="122.88" height="121.83" xmlns="http://www.w3.org/2000/svg" data-name="Layer 1">

 <title>png</title>
 <g>
  <title>Layer 1</title>
  <path id="svg_1" fill-rule="evenodd" d="m102.42,37l-20.5,0a8.52,8.52 0 0 1 -8.85,-8.7l0,-20.77l-52.07,0a0.58,0.58 0 0 0 -0.41,0.18a0.45,0.45 0 0 0 -0.18,0.42l0,105.58a0.7,0.7 0 0 0 0.18,0.41a0.51,0.51 0 0 0 0.41,0.18l80.84,0c0.18,0 0.17,-0.09 0.26,-0.18s0.34,-0.28 0.34,-0.41l0,-76.71l-0.02,0zm7.47,79.08a5.77,5.77 0 0 1 -5.76,5.76l-85.47,0a5.77,5.77 0 0 1 -5.76,-5.76l0,-110.32a5.7,5.7 0 0 1 1.69,-4.07a5.77,5.77 0 0 1 4.07,-1.69l58.24,0a4.22,4.22 0 0 1 2.46,0.82l29.75,30.12a2.57,2.57 0 0 1 0.78,2.6l0,82.53l0,0.01zm-29.89,-88.39l-0.43,-18.06l21.09,21.37l-18.14,-0.81a2.4,2.4 0 0 1 -2.52,-2.5z" class="cls-1"/>
  <path id="svg_2" fill="#007fff" fill-rule="evenodd" d="m6.71,46.28l109.46,0a6.73,6.73 0 0 1 6.71,6.72l0,45.1a6.73,6.73 0 0 1 -6.71,6.71l-109.46,0a6.73,6.73 0 0 1 -6.71,-6.72l0,-45.09a6.73,6.73 0 0 1 6.71,-6.71l0,-0.01z" class="cls-2"/>
  <path id="svg_3" fill="#fff" d="m12.46,59.78l16.2,0c3.53,0 6.17,0.83 7.94,2.51s2.63,4.08 2.63,7.18a9.71,9.71 0 0 1 -2.88,7.47c-1.91,1.8 -4.84,2.69 -8.77,2.69l-5.35,0l0,11.67l-9.77,0l0,-31.52zm9.77,13.47l2.4,0a6.24,6.24 0 0 0 4,-1a3.17,3.17 0 0 0 1.14,-2.51a3.51,3.51 0 0 0 -1,-2.52c-0.67,-0.69 -1.91,-1 -3.75,-1l-2.79,0l0,7l0,0.03zm21.42,-13.47l9.1,0l11.82,17.4l0,-17.4l9.2,0l0,31.52l-9.2,0l-11.76,-17.3l0,17.3l-9.16,0l0,-31.52zm51.71,20.12l0,-6.56l15.06,0l0,13.41a31.11,31.11 0 0 1 -7.64,4a26,26 0 0 1 -7.88,1.06a19.21,19.21 0 0 1 -9.15,-1.91a13,13 0 0 1 -5.48,-5.7a18.66,18.66 0 0 1 -2,-8.68a18.15,18.15 0 0 1 2.13,-9a13.82,13.82 0 0 1 6.23,-5.78a20.08,20.08 0 0 1 8.62,-1.53a23.89,23.89 0 0 1 7.81,1a10.08,10.08 0 0 1 4.3,2.93a13,13 0 0 1 2.57,5l-9.38,1.69a5.06,5.06 0 0 0 -2,-2.74a6.05,6.05 0 0 0 -3.53,-1a6.38,6.38 0 0 0 -5.02,2.29q-1.91,2.24 -1.9,7c0,3.41 0.63,5.84 1.92,7.3a6.76,6.76 0 0 0 5.36,2.2a10.37,10.37 0 0 0 3.11,-0.47a17.86,17.86 0 0 0 3.39,-1.6l0,-2.91l-6.52,0z" class="cls-3"/>
 </g>
</svg>