<?xml version="1.0" encoding="UTF-8" standalone="no" ?>
<!DOCTYPE svg PUBLIC "-//W3C//DTD SVG 1.1//EN" "http://www.w3.org/Graphics/SVG/1.1/DTD/svg11.dtd">
<svg xmlns="http://www.w3.org/2000/svg" xmlns:xlink="http://www.w3.org/1999/xlink" version="1.1" width="1080" height="1080" viewBox="0 0 1080 1080" xml:space="preserve">
<desc>Created with Fabric.js 5.2.4</desc>
<defs>
</defs>
<rect x="0" y="0" width="100%" height="100%" fill="transparent"></rect>
<g transform="matrix(1 0 0 1 540 540)" id="7f642a5b-d102-4b53-bada-073d215d2a00"  >
<rect style="stroke: none; stroke-width: 1; stroke-dasharray: none; stroke-linecap: butt; stroke-dashoffset: 0; stroke-linejoin: miter; stroke-miterlimit: 4; fill: rgb(255,255,255); fill-rule: nonzero; opacity: 1; visibility: hidden;" vector-effect="non-scaling-stroke"  x="-540" y="-540" rx="0" ry="0" width="1080" height="1080" />
</g>
<g transform="matrix(1 0 0 1 540 540)" id="812f442c-c3d7-4452-a1c5-e73d321a4c4d"  >
</g>
<g transform="matrix(25 0 0 25 732.35 734.52)"  >
<path style="stroke: rgb(62,64,149); stroke-width: 20; stroke-dasharray: none; stroke-linecap: butt; stroke-dashoffset: 0; stroke-linejoin: miter; stroke-miterlimit: 4; fill: rgb(62,64,149); fill-rule: nonzero; opacity: 1;" vector-effect="non-scaling-stroke"  transform=" translate(-23, -23)" d="M 29.707 19.293 L 26.707 16.293 C 26.519550390375603 16.105381850242356 26.26521298283987 15.999964891539776 26 15.999964891539776 C 25.73478701716013 15.999964891539776 25.480449609624397 16.10538185024236 25.293 16.293 L 16 25.5859 L 16 30 L 20.4141 30 L 29.707 20.707 C 29.894618149757644 20.519550390375603 30.000035108460224 20.265212982839866 30.000035108460224 20 C 30.000035108460224 19.73478701716013 29.89461814975764 19.480449609624397 29.707 19.293 Z M 19.5859 28 L 18 28 L 18 26.4141 L 23 21.4141 L 24.5859 23 Z M 26 21.5859 L 24.4141 20 L 26 18.4141 L 27.5859 20 Z" stroke-linecap="round" />
</g>
<g transform="matrix(25 0 0 25 475 575)"  >
<rect style="stroke: rgb(62,64,149); stroke-width: 0.96; stroke-dasharray: none; stroke-linecap: butt; stroke-dashoffset: 0; stroke-linejoin: miter; stroke-miterlimit: 4; fill: rgb(62,64,149); fill-rule: nonzero; opacity: 1;" vector-effect="non-scaling-stroke"  x="-5" y="-1" rx="0" ry="0" width="10" height="2" />
</g>
<g transform="matrix(25 0 0 25 500 425)"  >
<rect style="stroke: rgb(62,64,149); stroke-width: 0.96; stroke-dasharray: none; stroke-linecap: butt; stroke-dashoffset: 0; stroke-linejoin: miter; stroke-miterlimit: 4; fill: rgb(62,64,149); fill-rule: nonzero; opacity: 1;" vector-effect="non-scaling-stroke"  x="-6" y="-1" rx="0" ry="0" width="12" height="2" />
</g>
<g transform="matrix(25 0 0 25 509.52 552.86)"  >
<path style="stroke: rgb(62,64,149); stroke-width: 20; stroke-dasharray: none; stroke-linecap: butt; stroke-dashoffset: 0; stroke-linejoin: miter; stroke-miterlimit: 4; fill: rgb(62,64,149); fill-rule: nonzero; opacity: 1;" vector-effect="non-scaling-stroke"  transform=" translate(-14, -15.73)" d="M 26 4 C 25.998732534440702 2.8959559279449096 25.10404407205509 2.0012674655592972 24 2 L 4 2 C 2.8959559279449096 2.0012674655592977 2.0012674655592964 2.895955927944911 2 4.000000000000002 L 2 17 C 1.9955870719279554 21.064120301543376 4.236134826604293 24.79836655933727 7.8241999999999985 26.706999999999997 L 13 29.4668 L 13 27.2 L 8.7656 24.9424 C 5.829840477670442 23.380661056274473 3.996569569196489 20.325312125717247 4.000000000000001 17.000000000000007 L 4 4 L 24 4 L 24 13 L 26 13 Z" stroke-linecap="round" />
</g>
</svg>