<?xml version="1.0" encoding="UTF-8" standalone="no"?>
<!-- Uploaded to: SVG Repo, www.svgrepo.com, Transformed by: SVG Repo Mixer Tools -->

<svg
   fill="#3e4095"
   width="800px"
   height="800px"
   viewBox="0 0 32 32"
   id="icon"
   version="1.1"
   sodipodi:docname="rule-cancelled-svgrepo-com.svg"
   inkscape:export-filename="rule-cancelled-svgrepo-com.svg"
   inkscape:export-xdpi="96"
   inkscape:export-ydpi="96"
   inkscape:version="1.3.2 (091e20e, 2023-11-25)"
   xmlns:inkscape="http://www.inkscape.org/namespaces/inkscape"
   xmlns:sodipodi="http://sodipodi.sourceforge.net/DTD/sodipodi-0.dtd"
   xmlns="http://www.w3.org/2000/svg"
   xmlns:svg="http://www.w3.org/2000/svg">
  <defs
     id="defs2" />
  <sodipodi:namedview
     id="namedview2"
     pagecolor="#ffffff"
     bordercolor="#000000"
     borderopacity="0.25"
     inkscape:showpageshadow="2"
     inkscape:pageopacity="0.0"
     inkscape:pagecheckerboard="0"
     inkscape:deskcolor="#d1d1d1"
     inkscape:zoom="0.95"
     inkscape:cx="400"
     inkscape:cy="399.47368"
     inkscape:window-width="1392"
     inkscape:window-height="968"
     inkscape:window-x="1968"
     inkscape:window-y="25"
     inkscape:window-maximized="0"
     inkscape:current-layer="icon" />
  <g
     id="SVGRepo_iconCarrier">
    <defs
       id="defs1">
      <style
         id="style1"> .cls-1 { fill: none; } </style>
    </defs>
    <path
       d="M30,24a6,6,0,1,0-6,6A6.0066,6.0066,0,0,0,30,24Zm-2,0a3.9521,3.9521,0,0,1-.5669,2.019L21.981,20.5669A3.9529,3.9529,0,0,1,24,20,4.0045,4.0045,0,0,1,28,24Zm-8,0a3.9521,3.9521,0,0,1,.5669-2.019l5.4521,5.4521A3.9529,3.9529,0,0,1,24,28,4.0045,4.0045,0,0,1,20,24Z"
       transform="translate(0 0)"
       id="path1" />
    <rect
       x="8"
       y="16"
       width="10"
       height="2"
       id="rect1" />
    <rect
       x="8"
       y="10"
       width="12"
       height="2"
       id="rect2" />
    <path
       d="M14,27.7334l-5.2344-2.791A8.9858,8.9858,0,0,1,4,17V4H24l0,11h2L26,4a2.0023,2.0023,0,0,0-2-2H4A2.0023,2.0023,0,0,0,2,4V17a10.9814,10.9814,0,0,0,5.8242,9.707L14,30Z"
       transform="translate(0 0)"
       id="path2"
       style="stroke-width:1.036;stroke-dasharray:none" />
    <rect
       id="_Transparent_Rectangle_"
       data-name="&lt;Transparent Rectangle&gt;"
       class="cls-1"
       width="32"
       height="32" />
  </g>
</svg>
