<?xml version="1.0" encoding="UTF-8" standalone="no"?>
<!-- Uploaded to: SVG Repo, www.svgrepo.com, Transformed by: SVG Repo Mixer Tools -->

<svg
   fill="#3e4095"
   width="800"
   height="800"
   viewBox="0 0 32 32"
   id="icon"
   stroke="#3e4095"
   stroke-width="0.00032"
   version="1.1"
   xmlns="http://www.w3.org/2000/svg"
   xmlns:svg="http://www.w3.org/2000/svg">
  <defs
     id="defs2" />
  <g
     id="g2">
    <path
       d="m 29.747151,18.931645 -3,-3 a 0.9994,0.9994 0 0 0 -1.414,0 l -9.293,9.2929 v 4.4141 h 4.4141 l 9.2929,-9.293 a 0.9994,0.9994 0 0 0 0,-1.414 z m -10.1211,8.707 h -1.5859 v -1.5859 l 5,-5 1.5859,1.5859 z m 6.4141,-6.4141 -1.5859,-1.5859 1.5859,-1.5859 1.5859,1.5859 z"
       id="path1"
       style="stroke-width:0.755906;stroke-dasharray:none" />
    <rect
       x="8"
       y="16"
       width="10"
       height="2"
       id="rect1"
       style="stroke-width:0.00030236;stroke-dasharray:none" />
    <rect
       x="8"
       y="10"
       width="12"
       height="2"
       id="rect2"
       style="stroke-width:0.00030236;stroke-dasharray:none" />
    <path
       d="M 24.650516,4.6585486 A 1.8831586,1.8996005 0 0 0 22.76952,2.7611301 H 3.9595656 A 1.8831586,1.8996005 0 0 0 2.0785701,4.6585486 V 16.991769 A 10.327981,10.418156 0 0 0 7.556217,26.20089 l 4.867829,2.618247 V 26.668603 L 8.4416015,24.526797 A 8.4511244,8.5249116 0 0 1 3.9595656,16.991769 V 4.6585486 H 22.76952 v 8.5383834 h 1.880996 z"
       id="path2"
       style="display:inline;stroke-width:1.42804;stroke-dasharray:none" />
  </g>
</svg>
