<svg width="1145" height="1005" viewBox="0 0 1145 1005" fill="none" xmlns="http://www.w3.org/2000/svg">
<g clip-path="url(#clip0_342_3293)">
<path d="M1117.9 1004.65H327.37C322.127 1004.65 317.884 1000.41 317.884 995.162V362.737C317.884 357.494 322.127 353.251 327.37 353.251H396.937V310.035C396.937 275.753 424.843 247.847 459.125 247.847H564.529C598.812 247.847 626.718 275.753 626.718 310.035V353.251H1055.71V204.631C1055.71 199.388 1059.95 195.145 1065.2 195.145C1070.44 195.145 1074.68 199.388 1074.68 204.631V353.251H1117.9C1123.14 353.251 1127.39 357.494 1127.39 362.737V995.162C1127.39 1000.41 1123.14 1004.65 1117.9 1004.65ZM336.857 985.675H1108.41V372.224H626.718V889.758C626.718 924.067 598.812 951.946 564.529 951.946H459.125C424.843 951.946 396.937 924.04 396.937 889.758V372.224H336.857V985.675ZM415.91 362.737V889.758C415.91 913.579 435.304 932.973 459.125 932.973H564.529C588.351 932.973 607.745 913.605 607.745 889.758V310.035C607.745 286.214 588.351 266.82 564.529 266.82H459.125C435.304 266.82 415.91 286.214 415.91 310.035V362.737ZM1038.85 793.84H880.742C875.498 793.84 871.255 789.597 871.255 784.354C871.255 779.11 875.498 774.867 880.742 774.867H1038.85C1044.09 774.867 1048.33 779.11 1048.33 784.354C1048.33 789.597 1044.09 793.84 1038.85 793.84ZM1038.85 714.787H696.284C691.041 714.787 686.798 710.544 686.798 705.3V441.79C686.798 436.547 691.041 432.304 696.284 432.304H1038.85C1044.09 432.304 1048.33 436.547 1048.33 441.79V705.3C1048.33 710.544 1044.09 714.787 1038.85 714.787ZM705.771 695.814H1029.36V451.277H705.771V695.814Z" fill="black"/>
</g>
<path d="M391 163.419C391 73.1656 303.472 0 195.502 0C87.5284 0 0 73.1656 0 163.419C0 253.673 87.5284 326.838 195.502 326.838C214.216 326.838 232.296 324.594 249.428 320.491C274.738 363.044 316.759 351.6 316.759 351.6C302.058 339.158 294.606 321.546 290.83 306.083C350.583 278.125 391 224.731 391 163.419Z" fill="#504696"/>
<path d="M144.27 161.635C144.27 170.268 137.27 177.27 128.635 177.27C120.002 177.27 113 170.27 113 161.635C113 152.999 119.999 146 128.635 146C137.268 146 144.27 152.999 144.27 161.635Z" fill="white"/>
<path d="M210.943 161.635C210.943 170.268 203.944 177.27 195.308 177.27C186.675 177.27 179.674 170.27 179.674 161.635C179.674 152.999 186.673 146 195.308 146C203.944 146 210.943 152.999 210.943 161.635Z" fill="white"/>
<path d="M277.619 161.635C277.619 170.268 270.62 177.27 261.985 177.27C253.349 177.27 246.35 170.27 246.35 161.635C246.35 152.999 253.349 146 261.985 146C270.62 146 277.619 152.999 277.619 161.635Z" fill="white"/>
<defs>
<clipPath id="clip0_342_3293">
<rect width="843.232" height="843.232" fill="white" transform="translate(301.488 161.181)"/>
</clipPath>
</defs>
</svg>
