<?xml version="1.0" encoding="UTF-8"?>
<!DOCTYPE svg PUBLIC "-//W3C//DTD SVG 1.1//EN" "http://www.w3.org/Graphics/SVG/1.1/DTD/svg11.dtd">
<!-- Creator: CorelDRAW X8 -->
<svg xmlns="http://www.w3.org/2000/svg" xml:space="preserve" width="250px" height="80px" version="1.1" style="shape-rendering:geometricPrecision; text-rendering:geometricPrecision; image-rendering:optimizeQuality; fill-rule:evenodd; clip-rule:evenodd"
viewBox="0 0 250000 79999"
 xmlns:xlink="http://www.w3.org/1999/xlink">
 <defs>
  <style type="text/css">
   <![CDATA[
    .fil3 {fill:none}
    .fil0 {fill:#3E4095}
    .fil2 {fill:#333333;fill-rule:nonzero}
    .fil1 {fill:#3E4095;fill-rule:nonzero}
   ]]>
  </style>
 </defs>
 <g id="Layer_x0020_1">
  <metadata id="CorelCorpID_0Corel-Layer"/>
  <g id="_2617752722640">
   <path class="fil0" d="M35069 4998c19330,0 35001,15671 35001,35001 0,19330 -15671,35001 -35001,35001 -19330,0 -35000,-15671 -35000,-35001 0,-19330 15670,-35001 35000,-35001zm0 7701c15078,0 27300,12222 27300,27300 0,15078 -12222,27300 -27300,27300 -15078,0 -27300,-12222 -27300,-27300 0,-15078 12222,-27300 27300,-27300zm-29251 21480c30,-171 36,-345 15,-521 -18,-175 -48,-348 -87,-523l697 -141c109,435 124,875 47,1318 -100,567 -351,975 -752,1222 -402,249 -912,318 -1530,210 -630,-111 -1088,-355 -1369,-731 -281,-378 -369,-866 -264,-1464 73,-413 204,-778 394,-1095l679 120c-209,399 -339,747 -391,1046 -57,332 -21,600 110,805 133,203 359,341 681,413l290 -1656 664 116 -289 1651c297,42 543,-7 739,-144 195,-140 318,-347 366,-626zm-1661 3351l-21 270c-19,253 17,445 108,578 89,132 230,206 420,221 193,14 339,-28 438,-126 100,-98 159,-258 175,-483l29 -373 -1149 -87zm474 1899c-417,-32 -725,-187 -926,-463 -201,-277 -282,-656 -247,-1135l27 -352 -1376 -104 63 -820 3868 293 -94 1236c-36,470 -164,818 -384,1047 -221,229 -532,327 -931,298zm-2472 3854l-61 -821 1495 -113c-113,-265 -193,-487 -240,-665 -47,-178 -77,-349 -90,-513 -28,-369 39,-660 201,-873 163,-214 404,-333 724,-358l1598 -120 63 817 -1366 104c-186,14 -323,69 -411,161 -88,94 -124,244 -108,450 10,145 36,288 75,428 42,143 106,316 194,520l1733 -131 61 820 -3868 294zm3967 645l128 728 -1845 324 -496 77 -567 72 4 15 3210 1255 170 968 -3821 671 -126 -722 1834 -322c246,-43 613,-91 1101,-144l-4 -20 -3237 -1257 -171 -976 3820 -669zm-2296 6940l2594 -1846 -8 -23c-577,227 -964,374 -1159,439l-1713 569 -232 -698 3681 -1223 353 1063 -2526 1805 6 15 3122 -10 353 1063 -3682 1222 -242 -727 1743 -579c82,-27 178,-58 286,-91 109,-33 397,-116 867,-250l-7 -23 -3198 8 -238 -714zm4489 8660l-508 -789 746 -1552 -1722 35 -477 -742 2379 0 928 -2029 491 763 -721 1458 1617 -66 479 745 -2276 17 -936 2160zm3017 85l1736 -437 582 667 -2632 586 -1139 991 -536 -617 1119 -973 962 -2544 585 672 -677 1655zm2113 5448l-595 -567 1033 -1086c-262,-121 -468,-232 -623,-332 -155,-102 -292,-208 -410,-321 -269,-256 -415,-515 -437,-782 -22,-268 77,-519 298,-752l1104 -1161 595 565 -943 992c-129,136 -195,268 -198,396 -2,129 71,264 221,406 105,100 220,189 344,268 125,78 288,163 491,255l1198 -1259 595 567 -2673 2811zm3604 2698l-669 -475 969 -1364 -1252 -889 -969 1365 -671 -476 2247 -3163 670 476 -881 1240 1253 889 880 -1240 668 474 -2245 3163zm2891 -2720l658 339 -859 1665 -238 441 -286 495 15 7 2940 -1798 874 451 -1776 3448 -652 -336 854 -1656c114,-222 297,-543 550,-963l-18 -10 -2959 1818 -880 -454 1777 -3447zm3784 1936l701 238 -604 1773 -171 472 -209 532 15 5 2644 -2213 932 318 -1251 3672 -694 -236 600 -1763c82,-237 215,-581 403,-1035l-19 -7 -2660 2235 -936 -319 1249 -3672zm3277 -217c-138,303 -334,491 -587,565 -253,73 -572,45 -957,-86 -397,-135 -667,-304 -810,-507 -144,-201 -171,-469 -85,-802l686 234c-47,177 -46,312 6,408 51,94 172,174 364,239 170,58 309,64 418,14 109,-48 199,-147 273,-301l692 236zm5873 3303c-31,248 -145,440 -342,579 -196,139 -448,210 -754,215l-1 15c349,81 606,215 774,399 168,183 235,404 202,659 -46,356 -226,617 -540,784 -313,168 -723,219 -1231,153 -564,-73 -1008,-201 -1332,-385l89 -685c154,100 340,186 556,261 216,73 420,123 614,147 646,85 995,-61 1044,-439 21,-169 -66,-313 -261,-431 -196,-118 -497,-204 -905,-258l-360 -46 83 -636 323 42c407,53 709,53 904,0 196,-53 306,-169 328,-348 18,-132 -26,-245 -132,-338 -107,-93 -277,-155 -510,-184 -362,-47 -724,12 -1088,177l-285 -592c239,-117 485,-192 740,-228 254,-35 530,-34 830,5 419,54 743,187 970,393 227,208 322,455 284,741zm4284 1014c14,644 -133,1140 -444,1492 -312,352 -764,535 -1357,548 -594,13 -1055,-149 -1381,-486 -326,-338 -496,-830 -510,-1476 -14,-645 134,-1142 445,-1489 312,-347 766,-528 1362,-541 596,-14 1056,148 1379,483 323,337 491,826 506,1469zm-2830 64c10,434 100,757 269,975 168,215 418,319 745,311 655,-15 973,-458 954,-1330 -20,-874 -355,-1302 -1007,-1288 -329,7 -572,123 -734,347 -160,223 -236,553 -227,985zm7021 1386l-931 120 -1083 -1338 -705 1571 -874 113 1018 -2148 -1437 -1708 900 -118 1008 1277 633 -1490 878 -114 -958 2064 1551 1771zm-241 -3893l711 -203 515 1801 129 485 130 556 16 -4 911 -3324 946 -272 1066 3730 -705 202 -511 -1791c-69,-240 -155,-600 -259,-1080l-20 6 -912 3352 -951 272 -1066 -3730zm8219 498l527 -238 735 1625 -723 326 -466 -1030 -2601 1176 -1599 -3535 749 -338 1316 2911 1303 -589 -1316 -2911 747 -337 1328 2940zm2342 -5004l320 2977c41,375 42,659 2,855 -41,197 -121,371 -240,524 -121,153 -293,294 -517,423 -192,109 -384,189 -577,237l-349 -613c166,-21 350,-90 551,-206 128,-72 214,-161 259,-264 45,-104 51,-245 19,-421l-2548 -1752 756 -433 1902 1405 23 -13 -25 -140 -310 -2160 734 -419zm2596 -2097l752 2900c94,365 137,646 126,847 -12,199 -65,382 -162,551 -97,169 -247,335 -450,494 -173,137 -352,243 -535,319l-436 -554c162,-47 335,-142 516,-285 116,-91 188,-191 217,-300 29,-109 15,-249 -42,-418l-2776 -1363 685 -537 2087 1111 21 -16 -45 -134 -623 -2091 665 -524zm5027 547l-591 567 -2209 -2308 -686 657 215 287c545,729 915,1254 1107,1576 193,322 282,592 269,811 -15,218 -121,422 -322,608 -107,103 -215,180 -324,229l-466 -486c98,-45 181,-99 246,-161 68,-66 92,-148 72,-248 -20,-99 -92,-250 -219,-452 -126,-202 -342,-521 -650,-959 -310,-440 -606,-850 -892,-1230l1768 -1692 2682 2801zm2341 -2872l-899 -352 -877 1109 550 794 -550 694 -2205 -3490 623 -788 3907 1338 -549 695zm-1562 -626c-818,-316 -1280,-494 -1386,-536 -106,-43 -189,-78 -247,-107 141,187 476,665 1007,1435l626 -792zm4230 -3430l-504 791 -1722 -28 751 1549 -474 743 -994 -2161 -2231 6 488 -766 1625 47 -735 -1443 476 -746 966 2061 2354 -53zm2520 -6314l-303 889 -1679 381 1098 1327 -283 834 -1480 -1863 -2166 535 291 -858 1591 -343 -1057 -1225 285 -838 1429 1771 2274 -610zm-913 -4568c627,144 1072,409 1337,798 265,387 330,870 197,1450 -132,579 -403,985 -810,1218 -408,234 -926,277 -1555,132 -629,-144 -1074,-410 -1334,-797 -261,-388 -324,-872 -192,-1453 134,-581 403,-987 808,-1218 405,-230 921,-274 1549,-130zm-633 2759c422,97 758,90 1009,-21 251,-111 413,-327 486,-645 147,-640 -204,-1057 -1055,-1253 -851,-195 -1350,25 -1496,661 -74,319 -20,585 157,797 177,210 477,364 899,461zm656 -4450l22 -269c18,-254 -17,-446 -108,-578 -90,-133 -230,-207 -420,-221 -193,-15 -339,27 -439,124 -99,98 -158,259 -174,484l-29 373 1148 87zm-473 -1898c417,32 725,185 926,462 200,277 282,655 246,1135l-27 352 1376 105 -62 820 -3868 -295 94 -1235c35,-469 163,-817 384,-1048 221,-228 531,-327 931,-296zm660 -4355c642,-14 1140,134 1492,444 352,311 533,763 546,1357 15,594 -148,1055 -485,1381 -338,326 -830,496 -1475,510 -646,14 -1142,-133 -1491,-446 -347,-311 -528,-766 -541,-1361 -13,-595 148,-1056 485,-1378 335,-324 825,-493 1469,-507zm62 2830c434,-9 759,-99 975,-268 215,-169 319,-418 312,-745 -14,-656 -459,-975 -1330,-955 -874,19 -1303,356 -1288,1008 7,328 123,572 346,733 225,161 553,237 985,227zm-832 -7147c633,-111 1147,-40 1541,214 395,255 644,674 747,1259 101,586 11,1064 -273,1439 -285,373 -746,615 -1382,726 -636,111 -1149,40 -1540,-216 -390,-255 -637,-677 -740,-1264 -102,-587 -13,-1065 271,-1436 283,-370 742,-611 1376,-722zm489 2788c427,-75 733,-212 922,-411 188,-201 253,-462 196,-785 -113,-646 -600,-894 -1458,-743 -861,152 -1235,547 -1121,1191 56,322 208,546 453,672 245,125 581,151 1008,76zm-46291 -20032l-2440 -2043 -19 12c365,502 603,838 715,1012l983 1514 -617 399 -2111 -3254 940 -609 2383 1989 14 -9 -797 -3018 939 -610 2111 3254 -643 418 -1000 -1541c-46,-72 -99,-157 -160,-254 -59,-96 -212,-354 -460,-775l-20 12 814 3093 -632 410zm5552 -4855c242,595 281,1111 116,1552 -166,439 -523,770 -1074,994 -550,223 -1037,236 -1462,37 -425,-200 -759,-599 -1003,-1197 -243,-597 -281,-1115 -113,-1551 166,-435 527,-765 1079,-989 552,-226 1039,-239 1460,-39 422,198 754,596 997,1193zm-2622 1066c163,402 363,672 598,814 235,142 504,150 806,27 609,-248 748,-775 420,-1583 -330,-810 -796,-1091 -1401,-845 -304,124 -490,319 -561,586 -71,265 -25,600 138,1001zm7224 -218l-799 184 -377 -1631 -1495 346 376 1630 -801 185 -873 -3779 802 -186 341 1482 1497 -344 -343 -1483 800 -184 872 3780zm2873 -4306l92 672 -1613 223 435 3170 -814 112 -528 -3843 2428 -334zm4571 1936c-10,643 -176,1134 -499,1474 -325,340 -784,505 -1378,496 -594,-9 -1047,-189 -1360,-538 -314,-350 -464,-847 -455,-1493 9,-645 177,-1136 502,-1472 324,-335 784,-498 1380,-490 596,9 1050,188 1359,535 311,349 461,845 451,1488zm-2830 -43c-7,433 71,760 231,983 161,221 406,335 733,341 657,9 991,-422 1004,-1294 13,-874 -306,-1315 -959,-1325 -327,-5 -575,102 -745,319 -169,217 -258,543 -264,976zm6533 2474l-812 -111 434 -3165 -940 -129 -91 346c-232,881 -414,1498 -546,1847 -133,351 -289,588 -469,715 -180,125 -405,167 -676,126 -147,-20 -275,-58 -381,-111l91 -667c97,48 190,79 280,92 93,12 173,-20 237,-98 67,-77 140,-228 219,-452 80,-224 196,-593 347,-1107 153,-515 288,-1002 409,-1462l2425 333 -527 3843zm6482 -2087l-2029 2203c-255,277 -468,465 -643,564 -173,100 -358,154 -551,164 -195,11 -415,-25 -659,-109 -208,-72 -395,-165 -559,-278l230 -666c127,110 300,203 519,279 139,48 262,54 369,20 109,-36 218,-123 330,-262l-360 -3073 822 284 197 2357 26 9 87 -111 1421 -1657 800 276zm1717 5047l-744 -343 1334 -2903 -863 -396 -187 305c-478,776 -831,1312 -1059,1610 -229,297 -447,478 -656,547 -208,68 -436,42 -684,-74 -135,-63 -245,-135 -331,-218l281 -612c78,75 158,131 240,169 86,39 171,32 256,-23 86,-56 200,-179 340,-371 142,-190 359,-510 653,-958 296,-449 567,-874 815,-1280l2226 1021 -1621 3526zm3952 -1332c-262,-165 -527,-194 -795,-88 -267,106 -511,336 -733,686 -461,733 -417,1271 132,1617 230,146 546,264 946,355l-368 583c-339,-57 -676,-190 -1008,-399 -477,-301 -751,-676 -821,-1125 -71,-448 65,-943 407,-1485 215,-342 465,-602 751,-780 286,-178 588,-262 906,-254 320,11 635,114 948,311 318,201 589,479 814,836l-581 424c-85,-136 -177,-263 -274,-386 -96,-122 -205,-220 -324,-295zm-44939 9519c317,-486 967,-625 1453,-309 487,316 625,966 310,1453 -317,486 -967,624 -1453,308 -487,-316 -625,-966 -310,-1452zm54012 0c316,486 178,1136 -309,1452 -487,316 -1136,178 -1453,-308 -315,-487 -177,-1137 310,-1453 486,-316 1136,-177 1452,309z"/>
   <polygon class="fil0" points="35069,19316 42728,20399 50386,21483 35069,21483 19753,21483 27411,20399 "/>
   <polygon class="fil0" points="35069,15893 42802,48507 41280,48507 37827,33946 35069,22312 28859,48507 27337,48507 "/>
   <path class="fil0" d="M21070 21099l4899 9800c0,1547 -2193,2800 -4899,2800 -2707,0 -4901,-1253 -4901,-2800l4901 -9800zm2164 5044l-2164 -4329 -4383 8765 8765 0 -2218 -4436z"/>
   <path class="fil0" d="M49069 21099l4900 9800c0,1547 -2193,2800 -4900,2800 -2706,0 -4899,-1253 -4899,-2800l4899 -9800zm2165 5044l-2165 -4329 -4382 8765 8765 0 -2218 -4436z"/>
   <path class="fil1" d="M38530 33123l-3211 2686 4861 4068 -103 122 83 137 -4779 2862 6455 3865 -83 137 0 160 -13367 0 0 -160 -83 -137 6455 -3865 -4779 -2862 83 -137 -103 -122 4861 -4068 -3211 -2686 103 -124 0 0 -112 -115 3238 -3113 -1982 -1906 111 -116 -132 -91 2040 -2935 -995 -1432 263 -183 926 1334 926 -1334 264 183 -995 1432 2040 2935 -132 91 111 116 -1983 1906 3238 3113 -111 115 103 124zm-3461 2895l-4566 3821 9133 0 -4567 -3821zm0 -418l2917 -2440 -5833 0 2916 2440zm-1796 -8011l3592 0 -1796 -2585 -1796 2585zm92 321l1704 1639 1705 -1639 -3409 0zm6134 12250l-8859 0 4429 2652 4430 -2652zm-10534 6679l12208 0 -6104 -3654 -6104 3654zm3145 -14000l5919 0 -2960 -2846 -2959 2846z"/>
   <path class="fil0" d="M45919 48050l9801 0 0 9799 -9801 0 0 -9799zm5656 2793l0 -633 896 0 206 317 -190 316 -912 0zm-176 -341c-402,6 -908,224 -1437,563 -614,395 -1253,950 -1805,1528 -36,87 -54,172 -53,253 0,85 23,168 65,248l-236 146c-65,-123 -99,-256 -99,-391 -2,-135 28,-271 91,-406l26 -40c569,-600 1233,-1177 1872,-1587 567,-364 1118,-599 1573,-606l3 292zm58 3128l-3512 0c-37,88 -61,211 -58,336 1,79 13,157 40,222l3508 -2 0 304 -3545 3c-40,75 -59,160 -59,244 0,96 26,187 77,254l3696 0 0 -272 2831 0c27,-54 52,-108 77,-164l-2922 0 0 -575 3121 0c14,-54 27,-109 40,-164l-3176 0 0 -578 3259 0c5,-67 8,-135 9,-204l-41 40 -3227 0 0 -575 3232 0 14 14c-217,-2017 -1926,-3588 -4002,-3588 -2222,0 -4025,1801 -4025,4024 0,2224 1803,4025 4025,4025 1346,0 2537,-660 3269,-1675l-2483 0 -1 0 -3750 0 -87 -35c-138,-130 -207,-325 -207,-527 0,-150 39,-303 117,-437 -39,-103 -57,-216 -58,-329 -4,-188 37,-379 100,-509 69,-143 79,-143 195,-137 1180,8 2363,0 3543,0l0 305zm101 -1295l0 -592 2506 0 265 289 -231 303 -2540 0zm17 -757l0 -571 1623 0 248 299 -244 272 -1627 0z"/>
   <path class="fil0" d="M35419 48050l9801 0 0 9799 -9801 0 0 -9799zm3696 5485l-772 -957 -1311 226 371 146 -28 134c-19,86 -45,179 -71,276 -84,307 -179,664 -90,895l983 1135c13,-150 40,-328 87,-532 83,-355 227,-794 461,-1310l65 -144 305 131zm-209 -516l1223 0 0 1161c-393,-7 -785,-69 -1174,-183 -32,-116 -58,-232 -78,-349l16 -34c-46,100 -88,196 -127,289l10 38 -22 -7c-21,51 -40,102 -59,150 43,15 87,30 130,43 103,355 253,707 449,1058 -290,-124 -551,-305 -771,-528 -176,622 -176,1029 -130,1185 581,200 2357,140 2955,181l-469 -582c129,-34 254,-79 375,-132l936 1127 -1134 -1363c-30,62 -62,125 -95,187 -207,68 -426,107 -651,114l0 -1032c282,-5 567,-37 851,-96l-251 651 711 -1841 97 817 -36 -293c26,-186 40,-374 43,-561l909 0c-6,183 -32,361 -75,532 -215,117 -430,216 -644,300 1202,-144 1833,-476 1991,-642 -115,-604 -1057,-2112 -1320,-2649l-317 819c-73,-97 -151,-189 -236,-274l529 -1435 -693 1879 -339 52c9,35 19,69 28,103 306,89 612,208 918,359 -115,-301 -286,-573 -501,-803l-106 289 -498 78 8 29c-25,-7 -50,-13 -75,-19l-1383 216 228 -170 0 -10c-386,7 -772,67 -1158,176 -95,338 -146,674 -155,1008l1313 0 0 -1040 -228 36 455 -339c-22,-1 -45,-1 -66,-2l0 -508c-54,-69 -109,-134 -161,-195l0 703c-368,7 -737,59 -1104,155 114,-351 276,-706 484,-1063 117,-36 239,-63 362,-80 -461,-478 -820,-687 -981,-726 -464,403 -1300,1971 -1634,2468l509 -79c-33,110 -59,225 -78,340l723 -124 -569 98c13,-71 29,-139 47,-208 301,-160 602,-290 902,-388 -70,272 -111,542 -128,811l-252 -313 496 616zm1611 -1425l1214 -190 460 -1248 -311 248 -102 -92c-64,-58 -132,-127 -204,-200 -225,-226 -485,-487 -729,-524l-1476 283c124,86 264,200 417,343 266,250 576,594 904,1053l92 129 -265 198zm1000 2126l-443 1146 852 1023 -59 -394 131 -42c90,-28 180,-52 275,-77 307,-81 663,-176 817,-370l494 -1419c-137,64 -306,130 -506,190 -349,106 -801,202 -1365,256l-157 16 -39 -329zm-3559 -1645c294,-148 589,-266 884,-356 103,-342 248,-685 436,-1031 -606,259 -1087,762 -1320,1387zm4569 204c-314,-164 -630,-295 -944,-393 75,325 115,648 122,971l909 0c-6,-200 -36,-393 -87,-578zm-2398 3095l0 -1032c-375,-8 -750,-62 -1121,-162 116,366 283,728 501,1090 197,61 405,97 620,104zm161 -3581l0 1064 1254 0c-7,-339 -53,-679 -138,-1023 -201,-54 -402,-94 -602,-122l-514 81zm0 1226l0 1161c306,-5 613,-43 921,-115l326 -846c5,-67 7,-133 8,-200l-1255 0zm29 -4094c2223,0 4026,1801 4026,4024 0,2224 -1803,4025 -4026,4025 -2222,0 -4025,-1801 -4025,-4025 0,-2223 1803,-4024 4025,-4024z"/>
   <path class="fil0" d="M24919 48050l9801 0 0 9799 -9801 0 0 -9799zm6887 4580l80 2417c468,-48 987,-167 1583,-400 241,-516 376,-1091 376,-1698 0,-2223 -1803,-4024 -4026,-4024 -2222,0 -4025,1801 -4025,4024 0,703 180,1363 496,1937 1464,-474 2442,-261 3420,-48 538,118 1078,235 1703,233l72 -2442c43,13 90,20 137,22 65,3 126,-4 184,-21zm1570 2205c-555,203 -1042,311 -1485,356l18 518c322,-41 669,-118 1050,-241 158,-197 297,-408 417,-633zm-591 835c-312,90 -600,149 -872,183l18 524c317,-197 604,-434 854,-707zm-1420 997l3 -91c-617,-3 -1153,-120 -1689,-237 -706,-154 -1413,-307 -2306,-193 678,520 1526,828 2446,828 548,0 1070,-108 1546,-307zm-4145 -645c979,-152 1734,13 2490,177 527,115 1055,231 1663,233l15 -541c-672,14 -1246,-111 -1819,-236 -836,-182 -1672,-364 -2818,-102 143,169 300,326 469,469zm-571 -592c1211,-294 2080,-103 2950,86 565,122 1131,246 1794,231l15 -533c-633,3 -1181,-117 -1729,-237 -952,-207 -1905,-415 -3317,35 88,146 183,286 287,418zm474 -5433l422 880c88,-230 256,-421 470,-541l-892 -339zm1401 437c452,0 818,367 818,819 0,452 -366,820 -818,820 -453,0 -819,-368 -819,-820 0,-452 366,-819 819,-819zm-1035 645l-821 486 951 219c-91,-155 -144,-337 -144,-531 0,-59 5,-117 14,-174zm254 874l-133 945 765 -607c-249,-35 -471,-159 -632,-338zm840 346l656 694 3 -976c-174,164 -404,268 -659,282zm796 -439l951 -80 -761 -612c2,28 4,57 4,85 0,226 -73,436 -194,607zm152 -898l532 -792 -953 214c202,135 353,340 421,578zm-606 -678l-288 -909 -427 878c99,-31 204,-49 314,-49 143,0 278,28 401,80zm2737 1440c236,11 419,199 410,419 -10,223 -208,394 -444,383 -237,-9 -421,-197 -411,-419 9,-221 209,-392 445,-383zm-404 781c-509,197 -977,341 -1350,367 115,-163 575,-440 1175,-765 -5,156 63,297 175,398zm233 -887c34,-512 98,-967 224,-1301 98,169 158,688 203,1350 -74,-40 -160,-63 -251,-67 -61,-3 -121,4 -176,18zm714 499c513,236 956,476 1242,733 -204,32 -749,-116 -1427,-331 108,-91 179,-222 185,-370 1,-10 1,-21 0,-32z"/>
   <path class="fil0" d="M14419 48050l9801 0 0 9799 -9801 0 0 -9799zm4689 1795c81,-139 192,-237 315,-294 98,-47 203,-67 307,-63 104,5 207,36 299,89 114,67 210,170 274,307l-166 77c-48,-101 -118,-176 -201,-225 -66,-39 -139,-60 -214,-63 -74,-4 -151,10 -221,43 -91,43 -173,116 -235,221l-158 -92zm590 1921l2323 0 0 491 -205 0c166,1244 463,2061 952,2265l-3036 20c34,90 69,175 107,257l3056 0c287,-554 450,-1183 450,-1850 0,-2223 -1803,-4024 -4026,-4024 -2222,0 -4025,1801 -4025,4024 0,1046 399,2000 1054,2715l5943 0c126,-138 243,-287 351,-443l-2555 0c39,54 79,103 122,149l-3996 37c485,-441 957,-1738 1153,-3515l-347 0 0 -490 2518 0 0 490 -219 0c17,740 88,1410 216,1978 182,-439 305,-977 370,-1613l-206 0 0 -491zm1385 4802l-3528 0c532,261 1131,406 1764,406 633,0 1231,-145 1764,-406zm-1014 -6152c82,-140 193,-238 316,-295 98,-46 203,-67 307,-61 104,5 206,34 299,89 112,66 210,168 274,305l-167 78c-47,-101 -118,-177 -201,-225 -66,-39 -139,-60 -213,-64 -75,-3 -152,11 -223,45 -89,41 -172,115 -233,221l-159 -93zm-1947 -8c81,-139 192,-237 314,-295 98,-46 204,-66 308,-61 104,4 207,35 299,88 112,68 209,170 274,306l-167 78c-47,-101 -118,-177 -200,-224 -66,-39 -140,-60 -214,-64 -76,-4 -151,11 -222,44 -90,42 -173,115 -234,221l-158 -93zm2309 754c81,-139 192,-237 315,-294 98,-46 203,-67 307,-63 104,6 207,36 299,90 113,66 210,169 274,306l-165 78c-49,-102 -120,-177 -202,-226 -65,-39 -138,-60 -214,-63 -74,-4 -150,10 -221,43 -91,43 -172,116 -235,221l-158 -92zm-2948 -112c81,-140 192,-236 315,-294 98,-46 203,-66 307,-62 104,5 207,35 299,89 113,66 210,169 275,306l-166 78c-49,-102 -120,-177 -201,-226 -66,-39 -140,-60 -214,-64 -76,-3 -151,11 -222,45 -90,43 -172,115 -235,221l-158 -93z"/>
  </g>
  <path class="fil2" d="M103842 31028c43,793 209,1393 499,1800 291,406 766,609 1422,609 703,0 1210,-296 1516,-885 309,-590 484,-1462 528,-2620l-3250 0 0 -2245 3240 0c-49,-1178 -243,-2052 -587,-2627 -340,-576 -834,-860 -1481,-860 -350,0 -641,53 -875,163 -234,108 -425,271 -568,480 -144,209 -251,469 -319,779 -72,309 -116,662 -135,1056l-2700 0c56,-682 190,-1313 403,-1888 213,-577 509,-1078 894,-1496 382,-422 843,-750 1390,-985 547,-238 1181,-353 1910,-353 725,0 1384,150 1971,453 591,300 1092,731 1507,1291 416,559 734,1234 963,2028 224,794 337,1684 337,2672l0 852c0,989 -109,1876 -325,2664 -215,786 -528,1459 -938,2015 -409,556 -906,981 -1493,1278 -585,294 -1247,444 -1988,444 -712,0 -1346,-116 -1902,-340 -557,-226 -1029,-545 -1417,-953 -387,-407 -691,-898 -909,-1464 -219,-568 -347,-1190 -384,-1868l2691 0z"/>
  <path id="1" class="fil2" d="M114976 30781l0 4688 -2691 0 0 -13332 4541 0c678,0 1283,113 1815,331 535,220 987,526 1363,919 372,395 655,862 853,1401 199,540 300,1128 300,1762 0,646 -101,1234 -300,1756 -198,522 -481,965 -853,1331 -376,365 -828,648 -1365,847 -539,198 -1141,297 -1813,297l-1850 0zm0 -2243l1850 0c281,0 522,-47 727,-148 203,-97 372,-231 503,-406 133,-175 229,-382 288,-621 63,-241 94,-507 94,-794 0,-285 -31,-560 -94,-822 -59,-262 -155,-497 -288,-697 -131,-201 -300,-363 -503,-484 -205,-123 -446,-184 -727,-184l-1850 0 0 4156z"/>
  <path id="2" class="fil2" d="M132251 22137l0 13332 -2692 0 0 -5026c-165,35 -337,70 -521,100 -184,32 -366,54 -544,72 -181,19 -353,35 -519,48 -165,12 -306,19 -427,19 -685,0 -1304,-89 -1861,-257 -556,-172 -1031,-438 -1424,-803 -394,-362 -697,-822 -909,-1382 -217,-558 -323,-1221 -323,-1990l0 -4113 2700 0 0 4113c0,428 38,781 113,1065 71,285 185,509 335,678 146,169 336,285 565,354 228,66 497,100 804,100 114,0 256,-6 418,-15 165,-8 340,-23 522,-44 184,-23 368,-47 553,-79 187,-31 360,-65 518,-99l0 -6073 2692 0z"/>
  <polygon id="3" class="fil2" points="140941,22137 143632,22137 143632,35469 140941,35469 140941,26643 137013,35469 134313,35469 134313,22137 137013,22137 137013,30972 "/>
  <polygon id="4" class="fil2" points="149291,22137 151806,31778 154316,22137 157831,22137 157831,35469 155131,35469 155131,31863 155378,26303 152716,35469 150884,35469 148219,26303 148466,31863 148466,35469 145776,35469 145776,22137 "/>
  <polygon id="5" class="fil2" points="168491,26715 170285,22137 173370,22137 170238,28749 173444,35469 170323,35469 168491,30809 166669,35469 163548,35469 166751,28749 163610,22137 166694,22137 "/>
  <polygon id="6" class="fil2" points="178825,28124 180832,22137 183760,22137 180188,30634 180188,35469 177460,35469 177460,30634 173881,22137 176810,22137 "/>
  <path id="7" class="fil2" d="M194279 22137l0 13332 -2692 0 0 -5026c-165,35 -336,70 -521,100 -184,32 -366,54 -544,72 -181,19 -353,35 -519,48 -165,12 -306,19 -427,19 -685,0 -1304,-89 -1860,-257 -557,-172 -1032,-438 -1425,-803 -394,-362 -697,-822 -909,-1382 -216,-558 -323,-1221 -323,-1990l0 -4113 2700 0 0 4113c0,428 38,781 114,1065 71,285 184,509 334,678 146,169 337,285 566,354 228,66 496,100 803,100 114,0 256,-6 418,-15 165,-8 340,-23 522,-44 184,-23 368,-47 553,-79 188,-31 360,-65 518,-99l0 -6073 2692 0z"/>
  <polygon id="8" class="fil2" points="205788,35469 203107,35469 203107,29765 199132,29765 199132,35469 196442,35469 196442,22137 199132,22137 199132,27532 203107,27532 203107,22137 205788,22137 "/>
  <polygon id="9" class="fil2" points="214479,22137 217170,22137 217170,35469 214479,35469 214479,26643 210551,35469 207851,35469 207851,22137 210551,22137 210551,30972 "/>
  <path id="10" class="fil2" d="M225842 22137l2690 0 0 13332 -2690 0 0 -8826 -3929 8826 -2700 0 0 -13332 2700 0 0 8835 3929 -8835zm1224 -3518c0,403 -75,771 -225,1103 -150,334 -363,619 -637,856 -275,238 -607,424 -997,559 -391,135 -831,201 -1319,201 -488,0 -928,-66 -1322,-201 -394,-135 -728,-321 -1002,-559 -276,-237 -488,-522 -638,-856 -148,-332 -222,-700 -222,-1103l1893 0c0,159 23,309 70,452 46,144 121,272 224,382 103,110 234,197 397,266 163,66 363,100 600,100 232,0 429,-34 591,-100 163,-69 294,-156 393,-266 100,-110 176,-238 220,-382 46,-143 68,-293 68,-452l1906 0z"/>
  <path id="11" class="fil2" d="M85968 50091c484,0 831,-162 1044,-481 216,-322 323,-754 323,-1297 0,-212 -32,-419 -95,-613 -59,-197 -150,-365 -272,-512 -121,-147 -281,-266 -471,-354 -195,-87 -419,-131 -675,-131 -194,0 -378,35 -547,103 -173,72 -319,172 -444,307 -126,134 -225,300 -293,490 -72,194 -107,410 -107,657l-2690 0c0,-594 108,-1122 327,-1591 222,-465 516,-862 888,-1191 375,-324 806,-575 1299,-750 498,-172 1020,-259 1567,-259 640,0 1222,81 1740,241 519,163 963,402 1328,719 366,318 647,712 847,1187 197,472 298,1019 298,1644 0,609 -154,1166 -463,1669 -306,503 -732,902 -1269,1196 612,257 1081,644 1413,1166 328,522 493,1172 493,1947 0,622 -110,1175 -324,1659 -220,488 -523,898 -913,1228 -391,331 -853,585 -1388,760 -534,175 -1122,262 -1762,262 -519,0 -1032,-74 -1538,-222 -506,-146 -959,-374 -1362,-690 -404,-313 -729,-716 -976,-1203 -247,-488 -372,-1075 -372,-1760l2700 0c0,235 42,450 116,651 76,203 182,378 315,528 135,150 298,265 486,353 190,84 399,127 631,127 262,0 499,-46 709,-134 213,-88 388,-209 531,-365 144,-156 254,-340 332,-553 74,-216 112,-444 112,-687 0,-691 -131,-1185 -394,-1485 -262,-298 -643,-448 -1144,-448l-1362 0 0 -2168 1362 0z"/>
  <path id="12" class="fil2" d="M101534 52506c0,936 -116,1754 -350,2463 -231,710 -556,1297 -975,1765 -416,473 -922,826 -1510,1063 -590,238 -1240,359 -1952,359 -716,0 -1369,-121 -1960,-359 -594,-237 -1103,-590 -1526,-1063 -424,-468 -752,-1055 -989,-1765 -235,-709 -351,-1527 -351,-2463l0 -2215c0,-960 116,-1803 347,-2532 232,-727 560,-1337 978,-1827 422,-488 928,-854 1522,-1103 591,-247 1244,-370 1960,-370 712,0 1365,123 1952,370 591,249 1097,615 1519,1103 425,490 754,1100 985,1827 234,729 350,1572 350,2532l0 2215zm-2704 -2233c0,-635 -43,-1176 -133,-1626 -95,-447 -229,-816 -404,-1103 -179,-288 -397,-497 -659,-632 -262,-133 -566,-203 -906,-203 -351,0 -653,70 -917,203 -262,135 -484,344 -659,632 -178,287 -312,656 -402,1103 -91,450 -139,991 -139,1626l0 2233c0,604 48,1122 139,1553 90,429 227,782 406,1057 181,276 403,475 668,603 266,128 572,193 923,193 340,0 640,-65 900,-193 258,-128 477,-327 655,-603 175,-275 310,-628 397,-1057 88,-431 131,-949 131,-1553l0 -2233z"/>
  <polygon id="13" class="fil2" points="107439,49219 109233,44641 112318,44641 109186,51253 112393,57972 109271,57972 107439,53313 105618,57972 102496,57972 105700,51253 102559,44641 105643,44641 "/>
  <polygon id="14" class="fil2" points="120284,44641 122974,44641 122974,57972 120284,57972 120284,49147 116355,57972 113655,57972 113655,44641 116355,44641 116355,53476 "/>
  <polygon id="15" class="fil2" points="125018,44641 127708,44641 127708,55738 131656,55738 131656,44641 134356,44641 134356,55747 135993,55747 135812,61185 133302,61185 133302,57972 125018,57972 "/>
  <path id="16" class="fil2" d="M141843 50566l1797 -5925 2890 0 -3649 10713c-147,372 -310,727 -482,1065 -175,340 -384,638 -627,900 -245,260 -532,463 -866,615 -332,154 -729,228 -1185,232 -62,-4 -131,-4 -206,-4 -78,0 -153,0 -234,-2 -78,-4 -154,-7 -226,-13 -68,-6 -127,-12 -177,-19l-44 -2233c27,11 71,17 128,21 53,3 112,6 172,9 62,4 118,6 168,6 53,0 95,0 125,0 213,0 391,-28 526,-84 137,-53 249,-134 334,-241 87,-109 156,-240 213,-393 53,-157 106,-334 156,-537l128 -484 -3810 -9551 2884 0 1985 5925z"/>
  <path id="17" class="fil2" d="M152170 50566l1798 -5925 2890 0 -3650 10713c-146,372 -309,727 -482,1065 -174,340 -383,638 -627,900 -244,260 -531,463 -865,615 -332,154 -729,228 -1185,232 -63,-4 -131,-4 -207,-4 -78,0 -152,0 -234,-2 -78,-4 -153,-7 -225,-13 -69,-6 -128,-12 -177,-19l-44 -2233c27,11 71,17 127,21 54,3 113,6 173,9 61,4 118,6 168,6 53,0 94,0 125,0 212,0 391,-28 525,-84 137,-53 250,-134 335,-241 87,-109 156,-240 212,-393 53,-157 107,-334 156,-537l129 -484 -3810 -9551 2884 0 1984 5925z"/>
  <path id="18" class="fil2" d="M167140 44641l0 13331 -2701 0 0 -11087 -2443 0 -128 3753c-51,1357 -163,2500 -341,3428 -178,931 -428,1687 -756,2269 -325,578 -731,997 -1213,1253 -481,257 -1046,384 -1694,384l-640 0 0 -2234 313 0c353,-44 631,-153 830,-329 204,-177 361,-459 469,-847 110,-387 185,-900 228,-1534 44,-634 79,-1431 110,-2390l194 -5997 7772 0z"/>
  <path id="19" class="fil2" d="M175836 55244l-3671 0 -713 2728 -2847 0 4162 -13331 2467 0 4190 13331 -2875 0 -713 -2728zm-3084 -2244l2491 0 -1247 -4749 -1244 4749z"/>
  <polygon id="20" class="fil2" points="184845,49219 186640,44641 189725,44641 186592,51253 189799,57972 186677,57972 184845,53313 183024,57972 179903,57972 183106,51253 179965,44641 183049,44641 "/>
  <polygon id="21" class="fil2" points="199658,49219 201452,44641 204537,44641 201405,51253 204611,57972 201490,57972 199658,53313 197836,57972 194715,57972 197918,51253 194777,44641 197861,44641 "/>
  <path id="22" class="fil2" d="M215130 52506c0,936 -116,1754 -349,2463 -232,710 -557,1297 -976,1765 -416,473 -921,826 -1509,1063 -591,238 -1241,359 -1953,359 -716,0 -1369,-121 -1959,-359 -594,-237 -1103,-590 -1526,-1063 -424,-468 -753,-1055 -990,-1765 -235,-709 -351,-1527 -351,-2463l0 -2215c0,-960 116,-1803 347,-2532 232,-727 560,-1337 978,-1827 422,-488 929,-854 1523,-1103 590,-247 1244,-370 1959,-370 712,0 1366,123 1953,370 590,249 1097,615 1519,1103 425,490 753,1100 985,1827 233,729 349,1572 349,2532l0 2215zm-2703 -2233c0,-635 -44,-1176 -134,-1626 -94,-447 -229,-816 -404,-1103 -178,-288 -397,-497 -659,-632 -262,-133 -566,-203 -906,-203 -351,0 -653,70 -916,203 -262,135 -485,344 -659,632 -179,287 -312,656 -403,1103 -91,450 -138,991 -138,1626l0 2233c0,604 47,1122 138,1553 91,429 228,782 406,1057 181,276 403,475 669,603 265,128 571,193 922,193 340,0 640,-65 900,-193 259,-128 477,-327 656,-603 175,-275 309,-628 397,-1057 87,-431 131,-949 131,-1553l0 -2233z"/>
  <path id="23" class="fil2" d="M219753 53284l0 4688 -2691 0 0 -13331 4541 0c678,0 1284,112 1815,331 535,219 987,525 1363,919 372,394 656,862 853,1400 199,540 300,1128 300,1763 0,646 -101,1234 -300,1756 -197,522 -481,965 -853,1331 -376,365 -828,647 -1365,847 -539,197 -1141,296 -1813,296l-1850 0zm0 -2243l1850 0c281,0 522,-47 727,-147 203,-97 372,-232 503,-406 133,-175 230,-382 289,-622 62,-241 93,-506 93,-793 0,-285 -31,-560 -93,-822 -59,-263 -156,-498 -289,-697 -131,-201 -300,-363 -503,-485 -205,-122 -446,-184 -727,-184l-1850 0 0 4156z"/>
  <path id="24" class="fil2" d="M237112 52506c0,936 -116,1754 -350,2463 -231,710 -556,1297 -975,1765 -416,473 -922,826 -1510,1063 -590,238 -1240,359 -1952,359 -716,0 -1369,-121 -1960,-359 -594,-237 -1103,-590 -1526,-1063 -424,-468 -752,-1055 -989,-1765 -236,-709 -351,-1527 -351,-2463l0 -2215c0,-960 115,-1803 347,-2532 231,-727 560,-1337 978,-1827 422,-488 928,-854 1522,-1103 591,-247 1244,-370 1960,-370 712,0 1365,123 1952,370 591,249 1097,615 1519,1103 425,490 754,1100 985,1827 234,729 350,1572 350,2532l0 2215zm-2704 -2233c0,-635 -43,-1176 -133,-1626 -95,-447 -229,-816 -404,-1103 -179,-288 -397,-497 -659,-632 -262,-133 -566,-203 -906,-203 -351,0 -653,70 -917,203 -262,135 -484,344 -659,632 -178,287 -312,656 -403,1103 -90,450 -138,991 -138,1626l0 2233c0,604 48,1122 138,1553 91,429 228,782 407,1057 181,276 403,475 668,603 266,128 572,193 923,193 340,0 640,-65 900,-193 258,-128 477,-327 655,-603 175,-275 310,-628 397,-1057 88,-431 131,-949 131,-1553l0 -2233z"/>
  <path id="25" class="fil2" d="M248428 52506c0,936 -116,1754 -350,2463 -231,710 -556,1297 -975,1765 -416,473 -922,826 -1510,1063 -590,238 -1240,359 -1952,359 -716,0 -1369,-121 -1960,-359 -594,-237 -1103,-590 -1526,-1063 -424,-468 -752,-1055 -989,-1765 -235,-709 -351,-1527 -351,-2463l0 -2215c0,-960 116,-1803 347,-2532 232,-727 560,-1337 978,-1827 422,-488 928,-854 1523,-1103 590,-247 1243,-370 1959,-370 712,0 1365,123 1952,370 591,249 1098,615 1519,1103 425,490 754,1100 985,1827 234,729 350,1572 350,2532l0 2215zm-2704 -2233c0,-635 -43,-1176 -133,-1626 -95,-447 -229,-816 -404,-1103 -178,-288 -397,-497 -659,-632 -262,-133 -566,-203 -906,-203 -351,0 -653,70 -917,203 -262,135 -484,344 -659,632 -178,287 -311,656 -402,1103 -91,450 -139,991 -139,1626l0 2233c0,604 48,1122 139,1553 91,429 228,782 406,1057 181,276 403,475 668,603 266,128 572,193 923,193 340,0 640,-65 900,-193 259,-128 477,-327 655,-603 175,-275 310,-628 397,-1057 88,-431 131,-949 131,-1553l0 -2233z"/>
  <rect class="fil3" x="69" y="-1" width="250001" height="80000"/>
 </g>
</svg>
