<svg id="Layer_1" data-name="Layer 1" xmlns="http://www.w3.org/2000/svg" viewBox="0 0 122.88 121.83"><defs><style>.cls-1,.cls-2{fill-rule:evenodd;}.cls-2{fill:red;}.cls-3{fill:#fff;}</style></defs><title>zip</title><path class="cls-1" d="M102.42,37H81.92a8.52,8.52,0,0,1-8.85-8.7V7.53H21a.58.58,0,0,0-.41.18.45.45,0,0,0-.18.42V113.71a.7.7,0,0,0,.18.41.51.51,0,0,0,.41.18h80.84c.18,0,.17-.09.26-.18s.34-.28.34-.41V37Zm7.47,79.08a5.77,5.77,0,0,1-5.76,5.76H18.66a5.77,5.77,0,0,1-5.76-5.76V5.76a5.7,5.7,0,0,1,1.69-4.07A5.77,5.77,0,0,1,18.66,0H76.9a4.22,4.22,0,0,1,2.46.82l29.75,30.12a2.57,2.57,0,0,1,.78,2.6v82.53ZM80,27.69,79.57,9.63,100.66,31l-18.14-.81A2.4,2.4,0,0,1,80,27.69Z"/><path class="cls-2" d="M6.71,46.28H116.17A6.73,6.73,0,0,1,122.88,53v45.1a6.73,6.73,0,0,1-6.71,6.71H6.71A6.73,6.73,0,0,1,0,98.09V53a6.73,6.73,0,0,1,6.71-6.71Z"/><path class="cls-3" d="M22.63,59.78H50.14v6.3L32.47,84.52H50.81V91.3H20.91V84.76L38.4,66.51H22.63V59.78Zm34.41,0h9.77V91.3H57V59.78Zm18.16,0H91.4c3.53,0,6.17.83,7.94,2.51S102,66.37,102,69.47a9.71,9.71,0,0,1-2.88,7.47c-1.91,1.8-4.84,2.69-8.77,2.69H85V91.3H75.2V59.78ZM85,73.25h2.4a6.22,6.22,0,0,0,4-1,3.17,3.17,0,0,0,1.14-2.51,3.51,3.51,0,0,0-1-2.52c-.66-.69-1.91-1-3.75-1H85v7Z"/></svg>